<?xml version="1.0" encoding="UTF-8" standalone="no"?>
<!-- Generator: Gravit.io -->
<svg xmlns="http://www.w3.org/2000/svg" xmlns:xlink="http://www.w3.org/1999/xlink" style="isolation:isolate" viewBox="0 0 750 500" width="750pt" height="500pt"><defs><clipPath id="_clipPath_LvCcduYooKeI9bsBVMKQWI7HxbaJr0MW"><rect width="750" height="500"/></clipPath></defs><g clip-path="url(#_clipPath_LvCcduYooKeI9bsBVMKQWI7HxbaJr0MW)"><path d=" M 634.238 79.058 L 591.967 164.327 L 604.589 164.806 L 568.772 232.562 L 587.585 232.562 L 558.238 292.761 L 722.277 292.761 L 686.159 232.562 L 703.466 231.81 L 668.851 164.087 L 681.644 163.335 L 634.238 79.058 Z " fill="rgb(245,245,245)"/><clipPath id="_clipPath_vGjQPwkjqX45D0DnRzZBCoWP0hwJXcGs"><path d=" M 0 0 L 750 0 L 750 500 L 0 500 L 0 0 Z " fill="rgb(255,255,255)"/></clipPath><g clip-path="url(#_clipPath_vGjQPwkjqX45D0DnRzZBCoWP0hwJXcGs)"><path d=" M 641.385 177.971 C 641.627 177.973 641.294 229.455 640.643 292.945 C 639.99 356.455 638.946 415.084 638.945 414.842 C 638.865 401.259 639.114 356.447 639.766 292.936 C 640.418 229.447 641.143 177.969 641.385 177.971 Z " fill="rgb(224,224,224)"/><path d=" M 661.489 199.892 C 661.681 200.04 657.468 205.827 652.079 212.815 C 646.688 219.807 642.165 225.353 641.973 225.205 C 641.781 225.058 645.995 219.272 651.385 212.281 C 656.773 205.291 661.298 199.745 661.489 199.892 Z " fill="rgb(224,224,224)"/><path d=" M 640.987 223.391 C 640.838 223.582 636.674 220.585 631.686 216.699 C 626.698 212.811 622.776 209.505 622.925 209.314 C 623.073 209.123 627.237 212.12 632.225 216.007 C 637.213 219.894 641.135 223.201 640.987 223.391 Z " fill="rgb(224,224,224)"/><path d=" M 639.864 265.218 C 639.779 265.309 638.611 264.354 636.752 262.788 C 634.892 261.222 632.33 259.056 629.458 256.714 C 626.584 254.373 623.944 252.3 622.035 250.796 C 620.126 249.29 618.956 248.339 619.027 248.238 C 619.095 248.142 620.393 248.914 622.403 250.297 C 624.413 251.679 627.125 253.683 630.011 256.034 C 632.896 258.387 635.407 260.638 637.166 262.327 C 638.926 264.017 639.944 265.133 639.864 265.218 Z " fill="rgb(224,224,224)"/><path d=" M 661.515 239.364 C 661.703 239.515 657.085 245.575 651.202 252.897 C 645.316 260.222 640.393 266.035 640.204 265.884 C 640.016 265.732 644.633 259.674 650.519 252.348 C 656.402 245.027 661.326 239.213 661.515 239.364 Z " fill="rgb(224,224,224)"/><path d=" M 154.11 79.058 L 115.598 156.746 L 127.097 157.183 L 94.465 218.915 L 111.604 218.915 L 84.867 273.762 L 234.322 273.762 L 201.415 218.915 L 217.183 218.229 L 185.647 156.528 L 197.301 155.842 L 154.11 79.058 Z " fill="rgb(245,245,245)"/><path d=" M 160.622 169.177 C 160.843 169.179 160.539 216.084 159.946 273.929 C 159.351 331.793 158.69 397.367 158.47 397.364 C 158.249 397.363 158.553 331.785 159.147 273.921 C 159.741 216.076 160.402 169.175 160.622 169.177 Z " fill="rgb(224,224,224)"/><path d=" M 178.939 189.15 C 179.114 189.284 175.274 194.557 170.365 200.924 C 165.454 207.294 161.333 212.347 161.158 212.212 C 160.983 212.078 164.822 206.806 169.733 200.437 C 174.642 194.069 178.765 189.015 178.939 189.15 Z " fill="rgb(224,224,224)"/><path d=" M 160.259 210.559 C 160.123 210.733 156.329 208.003 151.785 204.462 C 147.24 200.92 143.667 197.908 143.802 197.734 C 143.938 197.56 147.731 200.289 152.277 203.832 C 156.82 207.373 160.394 210.386 160.259 210.559 Z " fill="rgb(224,224,224)"/><path d=" M 159.236 248.668 C 159.158 248.751 158.094 247.881 156.4 246.454 C 154.706 245.027 152.371 243.054 149.755 240.92 C 147.136 238.787 144.732 236.899 142.992 235.527 C 141.253 234.156 140.186 233.29 140.252 233.197 C 140.313 233.11 141.496 233.814 143.327 235.073 C 145.158 236.333 147.629 238.159 150.259 240.301 C 152.887 242.444 155.175 244.495 156.778 246.034 C 158.381 247.573 159.309 248.59 159.236 248.668 Z " fill="rgb(224,224,224)"/><path d=" M 178.962 225.112 C 179.134 225.25 174.926 230.772 169.566 237.443 C 164.203 244.116 159.718 249.412 159.546 249.274 C 159.374 249.136 163.581 243.616 168.943 236.943 C 174.304 230.271 178.79 224.974 178.962 225.112 Z " fill="rgb(224,224,224)"/><path d=" M 87.802 183.012 L 58.139 242.848 L 66.996 243.185 L 41.863 290.732 L 55.063 290.732 L 34.469 332.975 L 142.967 332.975 L 124.237 290.732 L 136.382 290.204 L 112.092 242.68 L 121.069 242.153 L 87.802 183.012 Z " fill="rgb(235,235,235)"/><path d=" M 92.818 252.422 C 92.988 252.424 92.755 288.551 92.297 333.104 C 91.839 377.672 91.33 413.788 91.16 413.786 C 90.991 413.784 91.224 377.665 91.682 333.098 C 92.139 288.545 92.648 252.421 92.818 252.422 Z " fill="rgb(224,224,224)"/><path d=" M 106.926 267.805 C 107.06 267.909 104.103 271.97 100.322 276.874 C 96.539 281.781 93.365 285.672 93.23 285.569 C 93.096 285.465 96.052 281.405 99.835 276.498 C 103.616 271.594 106.791 267.701 106.926 267.805 Z " fill="rgb(224,224,224)"/><path d=" M 92.538 284.296 C 92.434 284.43 89.511 282.327 86.012 279.6 C 82.511 276.871 79.759 274.551 79.863 274.417 C 79.967 274.283 82.889 276.386 86.39 279.114 C 89.889 281.842 92.642 284.162 92.538 284.296 Z " fill="rgb(224,224,224)"/><path d=" M 91.751 313.648 C 91.691 313.711 90.872 313.042 89.566 311.943 C 88.261 310.843 86.463 309.323 84.448 307.68 C 82.431 306.038 80.579 304.583 79.239 303.527 C 77.899 302.47 77.078 301.803 77.128 301.731 C 77.176 301.665 78.087 302.207 79.498 303.176 C 80.908 304.146 82.811 305.553 84.836 307.204 C 86.861 308.854 88.623 310.433 89.857 311.619 C 91.092 312.804 91.807 313.587 91.751 313.648 Z " fill="rgb(224,224,224)"/><path d=" M 106.944 295.504 C 107.076 295.61 103.836 299.862 99.707 305.001 C 95.577 310.141 92.122 314.22 91.989 314.113 C 91.858 314.007 95.097 309.756 99.228 304.615 C 103.357 299.478 106.812 295.398 106.944 295.504 Z " fill="rgb(224,224,224)"/><path d=" M 602.686 415.124 C 563.61 444.404 511.174 448.564 462.517 444.47 C 413.86 440.375 365.502 429.175 316.759 432.069 C 289.153 433.709 261.897 439.862 234.247 440.35 C 206.597 440.836 177.258 434.765 157.265 415.657 L 602.686 415.124 Z " fill="rgb(245,245,245)"/><path d=" M 234.854 134.996 L 366.899 134.996 C 366.899 134.996 355.222 113.747 321.233 116.84 C 288.772 119.793 287.122 106.386 270.616 104.735 C 254.11 103.085 240.356 115.739 234.854 134.996 Z " fill="rgb(235,235,235)"/><path d=" M 352.441 171.342 L 424.44 171.342 C 424.44 171.342 418.072 159.756 399.54 161.442 C 381.84 163.052 380.941 155.742 371.941 154.842 C 362.941 153.942 355.441 160.842 352.441 171.342 Z " fill="rgb(245,245,245)"/><path d=" M 427.382 103.927 L 499.38 103.927 C 499.38 103.927 493.013 92.341 474.481 94.027 C 456.78 95.638 455.881 88.327 446.881 87.427 C 437.881 86.528 430.382 93.427 427.382 103.927 Z " fill="rgb(250,250,250)"/><path d=" M 613.636 196.594 C 609.415 155.567 592.728 125.038 562.244 102.618 C 532.341 80.627 486.13 71.741 440.942 95.868 C 410.186 112.289 389.102 143.822 371.445 157.848 C 352.107 173.209 330.877 178.927 306.343 181.744 C 282.274 184.507 257.172 175.52 233.246 171.713 C 209.32 167.906 181.414 168.657 161.986 183.131 C 143.092 197.206 129.016 224.288 133.198 247.475 C 137.379 270.661 148.505 293.862 167.139 308.279 C 185.774 322.696 204.369 342.054 228.879 352.37 C 271.154 371.728 312.276 379.388 354.52 383.041 C 395.611 386.595 437.543 384.759 477.168 373.316 C 516.793 361.873 554.089 340.405 580.758 308.943 C 607.427 277.481 617.857 237.621 613.636 196.594 Z " fill="rgb(235,235,235)"/><path d=" M 717.427 414.514 C 717.427 414.659 564.062 414.775 374.919 414.775 C 185.711 414.775 32.379 414.659 32.379 414.514 C 32.379 414.37 185.711 414.254 374.919 414.254 C 564.062 414.254 717.427 414.37 717.427 414.514 Z " fill="rgb(38,50,56)"/><path d=" M 672.841 315.919 L 672.841 315.919 C 682.559 326.494 683.231 342.732 674.025 353.757 C 670.072 358.49 665.045 362.371 659.202 365.003 L 610.061 387.144 L 575.349 392.515 L 121.086 389.631 L 92.623 384.062 C 78.898 381.377 69.063 369.254 69.264 355.271 L 69.548 335.494 C 69.592 332.456 71.591 329.793 74.496 328.9 L 76.51 328.281 C 76.51 328.281 78.195 308.891 89.895 304.498 C 132.525 286.127 160.754 280.23 232.119 277.248 L 292.394 241.219 C 292.394 241.219 316.724 225.669 339.402 223.633 C 362.079 221.598 413.386 221.566 436.905 222.92 C 464.518 224.509 499.552 237.074 519.09 246.762 C 534.392 254.349 571.221 273.101 571.221 273.101 L 592.055 276.592 C 595.188 276.739 652.724 280.248 659.335 281.262 C 663.221 281.857 668.15 284.786 669.801 290.249 C 671.452 295.712 672.841 315.764 672.841 315.764" fill="rgb(232,80,91)"/><path d=" M 496.951 247.811 C 487.132 242.901 460.79 236.13 446.061 233.368 C 431.333 230.606 401.395 230.226 389.428 230.533 C 377.461 230.839 344.233 231.408 326.713 236.385 C 317.701 238.945 303.222 246.442 294.682 252.725 C 291.72 254.905 278.845 264.994 275.967 267.285 L 253.668 288.096 L 527.654 279.449 C 527.654 279.449 529.232 269.901 524.305 264.397 C 519.377 258.893 496.951 247.811 496.951 247.811 Z " fill="rgb(38,50,56)"/><path d=" M 90.533 327.106 L 76.673 326.907 C 77.212 323.17 79.044 313.23 84.966 307.664 L 103.317 307.926 C 106.664 307.975 108.684 311.651 106.93 314.502 L 103.592 319.931 C 100.808 324.457 95.846 327.183 90.533 327.106 Z " fill="rgb(250,250,250)"/><path d=" M 92.212 326.275 C 93.652 320.168 95.468 312.149 100.617 307.887 L 103.317 307.926 C 106.665 307.975 108.685 311.651 106.931 314.503 L 103.592 319.93 C 101.072 324.029 96.762 326.628 92.026 327.031 C 92.088 326.778 92.151 326.533 92.212 326.275 Z " fill="rgb(224,224,224)"/><g opacity="0.699997"><path d=" M 226.699 390.471 C 228.127 383.523 228.507 376.207 227.643 368.791 C 224.058 338.023 203.906 315.878 173.47 315.44 C 146.984 315.058 125.101 331.609 120.631 362.262 C 119.293 371.434 119.672 380.834 121.553 389.763 L 226.699 390.471 Z " fill="rgb(0,0,0)"/></g><g opacity="0.699997"><path d=" M 610.035 387.273 C 609.991 386.138 609.897 384.985 609.881 383.78 C 609.339 344.947 583.293 318.047 552.306 317.6 C 524.001 317.192 500.637 339.891 500.228 368.198 C 500.103 376.836 499.687 384.973 500.711 392.142 L 575.322 392.644 L 610.035 387.273 Z " fill="rgb(0,0,0)"/></g><path d=" M 506.835 368.294 C 506.479 392.998 526.217 413.314 550.922 413.67 C 575.626 414.026 595.942 394.288 596.299 369.584 C 596.655 344.88 576.917 324.564 552.212 324.207 C 527.508 323.851 507.191 343.589 506.835 368.294 Z " fill="rgb(38,50,56)"/><path d=" M 506.842 368.178 C 506.841 368.217 506.835 368.255 506.834 368.294 C 506.478 392.998 526.216 413.314 550.921 413.67 C 575.625 414.027 595.942 394.288 596.298 369.584 C 596.299 369.545 596.294 369.507 596.294 369.469 L 506.842 368.178 Z " fill="rgb(38,50,56)"/><path d=" M 520.162 368.486 C 519.912 385.831 533.769 400.094 551.113 400.344 C 568.458 400.594 582.722 386.737 582.972 369.392 C 583.222 352.049 569.364 337.785 552.019 337.535 C 534.676 337.285 520.413 351.142 520.162 368.486 Z " fill="rgb(250,250,250)"/><path d=" M 552.019 337.535 C 534.675 337.285 520.413 351.141 520.162 368.486 L 582.971 369.391 C 583.221 352.049 569.364 337.785 552.019 337.535 Z " fill="rgb(224,224,224)"/><path d=" M 532.436 368.663 C 532.284 379.228 540.725 387.916 551.29 388.069 C 561.856 388.221 570.544 379.78 570.697 369.215 C 570.849 358.649 562.408 349.961 551.842 349.809 C 541.277 349.656 532.589 358.098 532.436 368.663 Z " fill="rgb(38,50,56)"/><path d=" M 129.639 369.448 C 129.283 394.153 149.021 414.468 173.725 414.824 C 198.431 415.18 218.746 395.443 219.103 370.739 C 219.459 346.035 199.721 325.718 175.016 325.362 C 150.311 325.006 129.995 344.744 129.639 369.448 Z " fill="rgb(38,50,56)"/><path d=" M 129.647 369.332 C 129.646 369.371 129.64 369.409 129.639 369.448 C 129.283 394.152 149.021 414.468 173.726 414.824 C 198.431 415.181 218.747 395.442 219.103 370.738 C 219.104 370.699 219.099 370.661 219.099 370.623 L 129.647 369.332 Z " fill="rgb(38,50,56)"/><path d=" M 142.967 369.64 C 142.717 386.985 156.574 401.248 173.918 401.498 C 191.263 401.748 205.526 387.891 205.776 370.546 C 206.026 353.203 192.169 338.939 174.824 338.689 C 157.48 338.439 143.217 352.296 142.967 369.64 Z " fill="rgb(250,250,250)"/><path d=" M 174.824 338.689 C 157.48 338.439 143.217 352.296 142.967 369.64 L 205.776 370.546 C 206.026 353.203 192.169 338.939 174.824 338.689 Z " fill="rgb(224,224,224)"/><path d=" M 155.241 369.818 C 155.089 380.383 163.53 389.071 174.095 389.223 C 184.66 389.377 193.349 380.935 193.501 370.37 C 193.654 359.804 185.212 351.116 174.647 350.964 C 164.082 350.811 155.393 359.253 155.241 369.818 Z " fill="rgb(38,50,56)"/><g opacity="0.399994"><path d=" M 87.832 359.84 C 87.76 364.852 85.224 368.879 82.168 368.835 C 79.112 368.791 76.693 364.693 76.765 359.681 C 76.837 354.668 79.374 350.641 82.43 350.686 C 85.485 350.73 87.904 354.828 87.832 359.84 Z " fill="rgb(0,0,0)"/></g><path d=" M 672.841 315.919 C 672.841 315.94 672.544 315.966 671.978 315.992 C 671.348 316.015 670.527 316.043 669.503 316.079 C 667.355 316.134 664.245 316.199 660.406 316.356 C 656.567 316.485 651.998 316.722 646.94 317.131 C 641.891 317.586 636.327 318.181 630.648 319.532 C 627.821 320.242 625.097 321.101 622.632 322.3 C 620.158 323.483 618.008 325.04 616.037 326.631 C 612.032 329.736 609.017 333.193 606.273 335.897 C 603.559 338.632 601.104 340.602 599.259 341.729 C 598.335 342.287 597.598 342.69 597.074 342.911 C 596.558 343.148 596.283 343.261 596.274 343.24 C 596.242 343.177 597.339 342.701 599.124 341.52 C 600.91 340.339 603.29 338.342 605.951 335.578 C 608.637 332.854 611.642 329.336 615.668 326.172 C 617.638 324.562 619.833 322.953 622.358 321.737 C 624.871 320.504 627.637 319.629 630.495 318.911 C 636.236 317.546 641.823 316.969 646.892 316.544 C 651.968 316.165 656.547 315.977 660.392 315.904 C 664.237 315.805 667.35 315.809 669.501 315.83 C 670.525 315.844 671.347 315.856 671.977 315.863 C 672.543 315.878 672.841 315.897 672.841 315.919 Z " fill="rgb(38,50,56)"/><g opacity="0.5"><path d=" M 608.595 388.067 C 608.595 388.067 608.774 387.938 609.135 387.717 C 609.494 387.492 610.013 387.132 610.648 386.605 C 611.891 385.537 613.575 383.679 614.784 380.777 C 616.032 377.9 616.606 374.009 616.231 369.569 C 615.847 365.13 614.832 360.114 613.266 354.722 C 611.669 349.339 609.378 343.583 606.067 337.869 C 602.742 332.174 598.366 326.533 592.763 321.663 C 587.183 316.803 580.383 312.682 572.651 310.361 C 564.935 308.019 556.447 307.347 547.939 308.253 C 539.421 309.14 531.252 311.359 523.828 314.522 C 516.421 317.703 509.77 322.056 504.755 327.52 C 499.672 332.93 496.241 339.237 493.853 345.371 C 491.459 351.528 490.094 357.568 489.189 363.111 C 488.754 365.888 488.421 368.546 488.195 371.07 C 487.946 373.591 487.799 375.977 487.898 378.201 C 488.038 382.642 489.491 386.436 491.763 388.611 C 493.964 390.865 496.451 391.616 498.068 391.727 C 499.719 391.796 500.557 391.441 500.566 391.5 C 500.566 391.5 500.36 391.571 499.947 391.679 C 499.532 391.783 498.897 391.867 498.06 391.856 C 496.415 391.785 493.861 391.06 491.587 388.787 C 489.237 386.594 487.713 382.71 487.54 378.218 C 487.424 375.968 487.556 373.563 487.789 371.034 C 488.001 368.501 488.32 365.831 488.742 363.041 C 489.622 357.47 490.968 351.391 493.359 345.179 C 494.561 342.08 496.013 338.95 497.804 335.886 C 499.606 332.831 501.776 329.866 504.324 327.119 C 509.391 321.574 516.114 317.162 523.58 313.948 C 531.065 310.75 539.282 308.513 547.873 307.617 C 556.452 306.705 565.029 307.384 572.833 309.762 C 580.658 312.12 587.528 316.301 593.151 321.219 C 598.795 326.148 603.197 331.854 606.525 337.603 C 609.842 343.372 612.122 349.175 613.699 354.595 C 615.246 360.027 616.234 365.059 616.587 369.543 C 616.933 374.025 616.315 377.972 615.013 380.875 C 613.752 383.802 612.012 385.658 610.731 386.704 C 609.419 387.74 608.595 388.067 608.595 388.067 Z " fill="rgb(255,255,255)"/></g><path d=" M 121.565 362.249 C 121.519 362.282 121.044 361.64 120.12 360.543 C 119.201 359.442 117.762 357.936 115.781 356.316 C 111.856 353.046 105.436 349.669 97.767 348.086 C 90.091 346.504 82.925 346.632 77.8 346.807 C 75.23 346.903 73.149 347.026 71.711 347.103 C 70.273 347.18 69.475 347.208 69.471 347.162 C 69.469 347.141 69.666 347.103 70.042 347.05 C 70.494 346.997 71.037 346.933 71.691 346.854 C 73.125 346.702 75.203 346.511 77.778 346.355 C 82.911 346.065 90.128 345.859 97.898 347.46 C 105.667 349.062 112.165 352.562 116.069 355.969 C 118.041 357.655 119.446 359.228 120.314 360.387 C 120.772 360.946 121.056 361.436 121.275 361.746 C 121.483 362.064 121.584 362.236 121.565 362.249 Z " fill="rgb(38,50,56)"/><path d=" M 121.295 328.952 C 121.293 329.128 110.612 329.117 97.443 328.928 C 84.27 328.737 73.597 328.44 73.599 328.264 C 73.602 328.087 84.279 328.098 97.453 328.288 C 110.622 328.478 121.297 328.775 121.295 328.952 Z " fill="rgb(38,50,56)"/><g opacity="0.5"><path d=" M 242.338 385.855 C 242.338 385.855 242.315 385.647 242.301 385.243 C 242.29 384.812 242.276 384.215 242.257 383.448 C 242.255 382.659 242.209 381.683 242.14 380.532 C 242.095 379.379 242 378.052 241.852 376.562 C 241.336 370.607 239.946 361.977 236.417 351.864 C 234.66 346.81 232.317 341.418 229.313 335.892 C 226.313 330.374 222.702 324.643 217.974 319.397 C 213.276 314.137 207.177 309.664 200.072 306.737 C 192.999 303.747 185.069 302.172 176.936 301.977 C 172.861 301.92 168.841 302.256 164.919 302.842 C 161.01 303.52 157.207 304.458 153.567 305.691 C 149.961 306.998 146.446 308.41 143.223 310.223 L 142.001 310.869 L 140.825 311.581 C 140.044 312.055 139.267 312.527 138.495 312.996 C 137.753 313.51 137.014 314.022 136.28 314.531 L 135.183 315.292 L 134.141 316.116 C 128.564 320.441 123.961 325.432 120.456 330.643 C 116.917 335.834 114.349 341.144 112.543 346.169 C 110.733 351.2 109.685 355.946 109.072 360.147 C 108.838 362.258 108.582 364.22 108.538 366.043 C 108.401 367.86 108.447 369.523 108.461 371.019 C 108.431 372.518 108.62 373.839 108.671 374.991 C 108.724 376.144 108.875 377.108 108.976 377.89 C 109.071 378.652 109.145 379.244 109.198 379.671 C 109.245 380.074 109.253 380.282 109.253 380.282 C 109.253 380.282 109.202 380.081 109.134 379.682 C 109.065 379.256 108.97 378.667 108.848 377.908 C 108.727 377.126 108.555 376.163 108.482 375.008 C 108.411 373.855 108.202 372.531 108.212 371.027 C 108.179 369.525 108.114 367.854 108.233 366.028 C 108.259 364.198 108.499 362.224 108.718 360.099 C 109.3 355.872 110.322 351.091 112.117 346.018 C 113.907 340.951 116.47 335.59 120.018 330.344 C 123.531 325.08 128.162 320.029 133.78 315.651 L 134.83 314.818 L 135.935 314.046 C 136.675 313.532 137.419 313.013 138.168 312.493 C 138.946 312.018 139.729 311.541 140.516 311.06 L 141.701 310.339 L 142.933 309.686 C 146.183 307.851 149.727 306.42 153.365 305.099 C 157.035 303.85 160.872 302.901 164.817 302.214 C 168.775 301.62 172.833 301.281 176.947 301.337 C 185.161 301.535 193.167 303.128 200.315 306.16 C 207.494 309.124 213.68 313.677 218.411 319.002 C 223.174 324.313 226.785 330.085 229.778 335.639 C 232.776 341.204 235.107 346.63 236.843 351.715 C 240.333 361.891 241.658 370.564 242.1 376.541 C 242.552 382.532 242.338 385.855 242.338 385.855 Z " fill="rgb(255,255,255)"/></g><path d=" M 592.129 277.206 C 592.151 277.21 592.135 277.435 592.084 277.861 C 592.019 278.357 591.939 278.972 591.84 279.719 C 591.625 281.331 591.289 283.662 591.075 286.554 C 590.872 289.437 590.806 292.918 591.538 296.659 C 592.271 300.386 594.084 304.306 597.165 307.446 C 600.221 310.606 603.932 312.751 607.449 314.195 C 610.987 315.644 614.365 316.438 617.203 317.022 C 620.049 317.593 622.378 317.94 623.983 318.204 C 624.727 318.329 625.338 318.432 625.832 318.514 C 626.254 318.591 626.474 318.643 626.471 318.664 C 626.468 318.685 626.242 318.678 625.815 318.642 C 625.317 318.591 624.7 318.527 623.949 318.451 C 622.332 318.262 619.99 317.983 617.118 317.466 C 614.253 316.935 610.834 316.182 607.229 314.741 C 603.642 313.303 599.845 311.136 596.705 307.89 C 593.537 304.666 591.673 300.59 590.96 296.774 C 590.243 292.941 590.362 289.418 590.625 286.517 C 590.899 283.608 591.304 281.282 591.594 279.68 C 591.74 278.878 591.865 278.259 591.957 277.84 C 592.049 277.42 592.108 277.202 592.129 277.206 Z " fill="rgb(38,50,56)"/><path d=" M 364.855 301.69 C 364.855 301.668 365.045 301.648 365.407 301.636 C 365.768 301.629 366.305 301.613 366.998 301.719 C 367.675 301.81 368.591 302.165 369.17 303.039 C 369.759 303.862 370.024 305.187 369.434 306.383 C 368.869 307.568 367.652 308.497 366.203 308.89 C 364.751 309.297 363.152 309.211 361.545 309.121 C 358.3 308.936 354.751 308.735 351.026 308.523 C 350.091 308.463 349.119 308.377 348.214 307.995 C 347.324 307.616 346.506 306.93 346.185 305.967 C 345.857 304.999 346.171 303.963 346.709 303.24 C 347.238 302.494 348.025 301.962 348.829 301.692 C 350.461 301.136 352.047 301.254 353.478 301.222 C 354.923 301.226 356.267 301.268 357.492 301.318 C 359.856 301.419 361.81 301.503 363.285 301.566 C 364.652 301.614 365.41 301.634 365.411 301.681 C 365.411 301.704 365.222 301.727 364.861 301.752 C 364.501 301.779 363.968 301.802 363.283 301.815 C 361.911 301.849 359.925 301.816 357.479 301.77 C 356.255 301.749 354.917 301.733 353.481 301.752 C 352.054 301.801 350.483 301.726 349.03 302.246 C 348.303 302.5 347.661 302.953 347.205 303.595 C 346.75 304.22 346.527 305.043 346.778 305.769 C 347.021 306.501 347.691 307.086 348.461 307.409 C 349.243 307.738 350.144 307.828 351.066 307.885 C 354.79 308.115 358.337 308.333 361.58 308.533 C 363.19 308.64 364.72 308.735 366.066 308.378 C 367.395 308.043 368.512 307.211 369.028 306.184 C 369.566 305.156 369.373 304.001 368.873 303.236 C 368.377 302.436 367.604 302.095 366.951 301.964 C 365.627 301.72 364.849 301.758 364.855 301.69 Z " fill="rgb(38,50,56)"/><path d=" M 506.326 300.521 C 506.327 300.5 506.516 300.479 506.878 300.467 C 507.239 300.461 507.776 300.444 508.469 300.551 C 509.146 300.642 510.062 300.996 510.641 301.871 C 511.23 302.694 511.495 304.019 510.905 305.215 C 510.34 306.4 509.124 307.329 507.675 307.722 C 506.222 308.129 504.623 308.042 503.016 307.953 C 499.771 307.768 496.222 307.567 492.497 307.355 C 491.562 307.295 490.59 307.208 489.685 306.827 C 488.795 306.448 487.977 305.762 487.655 304.799 C 487.329 303.831 487.642 302.795 488.18 302.072 C 488.71 301.326 489.496 300.793 490.301 300.524 C 491.932 299.968 493.518 300.085 494.949 300.054 C 496.394 300.058 497.738 300.1 498.963 300.15 C 501.328 300.251 503.281 300.335 504.756 300.398 C 506.123 300.446 506.881 300.466 506.882 300.513 C 506.882 300.535 506.693 300.559 506.333 300.584 C 505.972 300.61 505.439 300.633 504.754 300.647 C 503.382 300.681 501.396 300.648 498.95 300.602 C 497.726 300.581 496.388 300.565 494.952 300.584 C 493.525 300.633 491.954 300.558 490.501 301.078 C 489.774 301.332 489.132 301.785 488.677 302.427 C 488.222 303.052 487.998 303.875 488.25 304.601 C 488.491 305.333 489.162 305.917 489.932 306.241 C 490.715 306.57 491.615 306.66 492.537 306.717 C 496.261 306.946 499.808 307.165 503.051 307.365 C 504.662 307.472 506.191 307.566 507.537 307.21 C 508.866 306.875 509.982 306.042 510.499 305.016 C 511.037 303.988 510.845 302.833 510.344 302.068 C 509.848 301.268 509.075 300.927 508.422 300.795 C 507.098 300.552 506.319 300.59 506.326 300.521 Z " fill="rgb(38,50,56)"/><path d=" M 527.654 279.448 C 527.654 279.448 527.613 279.641 527.514 280.013 C 527.41 280.396 527.26 280.949 527.063 281.675 C 526.654 283.15 526.052 285.319 525.27 288.141 C 523.68 293.809 521.356 302.1 518.403 312.636 L 518.385 312.698 L 518.327 312.723 C 513.764 314.852 509.021 317.852 504.569 321.901 C 502.305 323.884 500.212 326.22 498.164 328.72 C 496.14 331.246 494.289 334.042 492.558 337.028 C 489.144 343.032 486.433 349.908 484.528 357.371 C 482.655 364.833 481.432 372.9 481.431 381.295 L 481.431 381.53 L 481.2 381.53 C 451.59 381.54 417.28 381.55 380.881 381.56 C 332.175 381.542 287.223 381.523 251.477 381.51 L 251.292 381.51 L 251.269 381.326 C 248.023 354.797 245.97 332.953 244.735 317.751 C 244.113 310.148 243.688 304.208 243.41 300.169 C 243.279 298.155 243.18 296.614 243.112 295.562 C 243.049 294.523 243.031 293.987 243.031 293.987 C 243.031 293.987 243.091 294.52 243.175 295.559 C 243.257 296.609 243.377 298.148 243.533 300.158 C 243.864 304.206 244.35 310.136 244.971 317.73 C 246.278 332.924 248.39 354.756 251.684 381.275 L 251.477 381.092 C 287.223 381.078 332.175 381.059 380.881 381.04 C 417.28 381.05 451.59 381.06 481.2 381.069 L 480.969 381.305 C 480.982 372.838 482.221 364.765 484.115 357.266 C 486.042 349.773 488.779 342.867 492.225 336.838 C 493.971 333.84 495.841 331.03 497.883 328.494 C 499.949 325.983 502.062 323.641 504.344 321.653 C 508.835 317.593 513.616 314.593 518.208 312.47 L 518.133 312.559 C 521.141 302.038 523.508 293.761 525.127 288.102 C 525.94 285.287 526.565 283.124 526.99 281.655 C 527.203 280.932 527.365 280.384 527.477 280.004 C 527.589 279.633 527.654 279.448 527.654 279.448 Z " fill="rgb(38,50,56)"/><path d=" M 383.439 284.518 C 383.448 284.519 383.445 284.604 383.43 284.77 C 383.41 284.965 383.383 285.205 383.352 285.5 C 383.267 286.183 383.151 287.12 383.003 288.304 C 382.84 289.52 382.648 291.008 382.471 292.742 C 382.288 294.474 382.038 296.442 381.864 298.627 C 381.663 300.81 381.448 303.202 381.296 305.775 C 381.096 308.345 380.996 311.098 380.864 313.993 C 380.672 319.785 380.622 326.158 380.833 332.843 C 381.074 339.529 381.555 345.886 382.137 351.653 C 382.464 354.533 382.751 357.272 383.124 359.824 C 383.449 362.38 383.825 364.752 384.173 366.916 C 384.494 369.085 384.876 371.032 385.176 372.747 C 385.47 374.465 385.762 375.937 386.007 377.138 C 386.234 378.31 386.414 379.237 386.544 379.912 C 386.595 380.205 386.637 380.443 386.671 380.636 C 386.697 380.799 386.706 380.884 386.697 380.886 C 386.688 380.888 386.662 380.807 386.62 380.648 C 386.572 380.457 386.513 380.223 386.442 379.934 C 386.288 379.263 386.077 378.343 385.809 377.179 C 385.533 375.984 385.211 374.516 384.89 372.802 C 384.563 371.09 384.154 369.146 383.81 366.977 C 383.438 364.814 383.04 362.442 382.696 359.882 C 382.304 357.33 382.002 354.587 381.66 351.704 C 381.05 345.929 380.553 339.56 380.312 332.861 C 380.1 326.163 380.167 319.776 380.384 313.974 C 380.53 311.075 380.647 308.318 380.866 305.745 C 381.036 303.168 381.273 300.775 381.498 298.591 C 381.695 296.405 381.971 294.437 382.182 292.706 C 382.387 290.974 382.608 289.489 382.803 288.277 C 382.991 287.097 383.14 286.164 383.249 285.485 C 383.3 285.193 383.343 284.955 383.377 284.761 C 383.41 284.599 383.43 284.516 383.439 284.518 Z " fill="rgb(38,50,56)"/><path d=" M 244.215 281.666 C 241.007 284.064 236.239 284.663 232.313 283.861 C 228.388 283.061 225.3 281.234 223.289 277.77 L 232.092 277.377 L 244.215 281.666 Z " fill="rgb(38,50,56)"/><path d=" M 232.093 277.377 C 232.093 277.377 240.968 282.786 243.549 282.048 C 246.13 281.311 287.523 248.592 312.5 235.958 C 312.5 235.958 309.214 234.63 304.912 234.235 C 304.912 234.235 293.289 240.117 278.794 248.841 C 267.766 255.48 256.543 262.438 251.294 265.645 C 239.824 272.652 232.093 277.377 232.093 277.377 Z " fill="rgb(69,90,100)"/><path d=" M 260.486 284.32 C 260.491 284.327 260.393 284.389 260.2 284.505 C 259.986 284.63 259.698 284.798 259.332 285.011 C 258.539 285.462 257.402 286.108 255.935 286.941 C 252.936 288.623 248.59 291.058 243.11 294.13 L 243.072 294.152 L 243.025 294.15 C 234.987 293.861 224.665 293.649 212.843 294.133 C 206.935 294.385 200.652 294.808 194.107 295.477 C 187.563 296.157 180.758 297.078 173.79 298.187 C 161.585 300.093 150.066 302.496 139.527 304.429 C 128.979 306.321 119.369 307.382 111.278 307.816 C 103.186 308.282 96.623 308.162 92.097 308.03 C 89.834 307.962 88.078 307.87 86.888 307.796 C 86.311 307.759 85.862 307.731 85.534 307.711 C 85.23 307.688 85.074 307.664 85.074 307.664 C 85.074 307.664 85.231 307.652 85.537 307.657 C 85.865 307.666 86.315 307.676 86.892 307.691 C 88.084 307.731 89.84 307.791 92.103 307.828 C 96.626 307.897 103.181 307.961 111.257 307.449 C 119.331 306.968 128.916 305.871 139.443 303.957 C 149.958 302.001 161.492 299.581 173.708 297.674 C 180.684 296.562 187.501 295.644 194.056 294.973 C 200.612 294.312 206.907 293.902 212.825 293.666 C 224.666 293.216 234.998 293.475 243.037 293.825 L 242.953 293.845 C 248.463 290.83 252.834 288.438 255.849 286.788 C 257.335 285.986 258.486 285.366 259.287 284.932 C 259.664 284.735 259.958 284.58 260.177 284.465 C 260.378 284.362 260.484 284.313 260.486 284.32 Z " fill="rgb(38,50,56)"/><path d=" M 269.924 285.349 C 332.803 282.541 459.64 280.204 522.519 277.397 C 522.519 277.397 524.594 270.491 518.674 266.174 C 516.516 264.6 503.461 254.725 488.213 248.909 C 464.288 239.782 439.884 236.141 430.126 235.343 C 418.927 234.426 398.439 233.602 398.439 233.602 C 398.439 233.602 360.928 235.098 350.46 236.045 C 335.041 237.439 322.091 241.632 312.501 246.378 C 299.39 252.867 276.584 271.971 276.584 271.971 L 260.546 285.349 L 269.924 285.349 Z " fill="rgb(69,90,100)"/><path d=" M 385.636 231.738 L 373.501 283.631 L 395.507 282.93 L 399.885 231.738 L 385.636 231.738 Z " fill="rgb(38,50,56)"/><path d=" M 480.775 244.301 L 478.635 279.452 L 481.695 279.452 L 483.765 245.4 L 480.775 244.301 Z " fill="rgb(38,50,56)"/><path d=" M 272.297 273.446 C 273.261 274.742 278.85 287.301 278.85 287.301 L 257.612 285.912 L 272.297 273.446 Z " fill="rgb(38,50,56)"/><path d=" M 292.225 286.05 L 276.035 286.501 C 273.898 286.471 272.22 282.677 272.287 278.028 C 272.347 273.87 273.792 270.357 275.69 269.754 L 291.062 264.875 L 292.225 286.05 Z " fill="rgb(232,80,91)"/><path d=" M 392.527 231.145 C 392.669 231.167 390.954 242.994 388.697 257.558 C 386.439 272.127 384.495 283.916 384.352 283.894 C 384.211 283.872 385.924 272.048 388.182 257.478 C 390.439 242.914 392.384 231.123 392.527 231.145 Z " fill="rgb(69,90,100)"/><path d=" M 272.929 272.681 C 273.054 272.728 272.159 275.235 270.452 278.022 C 268.756 280.817 266.938 282.76 266.839 282.67 C 266.721 282.573 268.336 280.506 270.008 277.751 C 271.69 275.004 272.787 272.62 272.929 272.681 Z " fill="rgb(69,90,100)"/><path d=" M 362.678 241.176 C 362.693 241.187 362.612 241.334 362.444 241.605 C 362.239 241.923 361.991 242.309 361.691 242.775 C 360.976 243.848 360.018 245.286 358.856 247.033 C 356.453 250.622 353.141 255.583 349.535 261.098 C 345.928 266.614 342.712 271.64 340.387 275.28 C 339.254 277.045 338.321 278.499 337.624 279.584 C 337.318 280.046 337.064 280.428 336.854 280.744 C 336.674 281.006 336.571 281.139 336.556 281.13 C 336.54 281.12 336.613 280.969 336.765 280.689 C 336.952 280.36 337.178 279.96 337.451 279.479 C 338.056 278.432 338.952 276.931 340.075 275.085 C 342.32 271.393 345.491 266.333 349.099 260.813 C 352.707 255.295 356.071 250.363 358.552 246.825 C 359.792 245.056 360.808 243.633 361.524 242.659 C 361.856 242.216 362.131 241.848 362.358 241.545 C 362.553 241.293 362.663 241.166 362.678 241.176 Z " fill="rgb(235,235,235)"/><path d=" M 353.446 249.033 C 353.563 249.117 351.348 252.422 348.5 256.414 C 345.651 260.408 343.247 263.577 343.13 263.494 C 343.013 263.41 345.227 260.106 348.076 256.111 C 350.925 252.119 353.329 248.95 353.446 249.033 Z " fill="rgb(235,235,235)"/><path d=" M 672.645 313.154 C 672.645 313.154 667.429 313.484 663.495 311.794 C 657.244 309.108 654.247 301.692 657.225 295.576 C 657.243 295.538 657.261 295.501 657.28 295.463 C 659.142 291.716 663.005 289.038 667.19 289.064 L 669.373 289.064 C 669.373 289.064 670.341 290.616 670.792 294.263 C 671.383 299.04 672.273 306.271 672.645 313.154 Z " fill="rgb(245,245,245)"/><path d=" M 441.66 242.862 C 441.781 242.939 436.98 250.71 430.937 260.216 C 424.893 269.727 419.896 277.371 419.775 277.294 C 419.654 277.216 424.454 269.448 430.498 259.937 C 436.541 250.431 441.538 242.784 441.66 242.862 Z " fill="rgb(235,235,235)"/><path d=" M 440.033 252.673 C 440.154 252.75 438.551 255.45 436.453 258.703 C 434.354 261.956 432.555 264.529 432.434 264.451 C 432.313 264.373 433.917 261.674 436.015 258.42 C 438.113 255.168 439.913 252.595 440.033 252.673 Z " fill="rgb(235,235,235)"/><path d=" M 288.512 267.889 C 288.564 268.016 285.881 269.201 282.414 270.209 C 278.949 271.227 276.051 271.673 276.026 271.538 C 275.996 271.391 278.828 270.72 282.268 269.71 C 285.709 268.708 288.458 267.748 288.512 267.889 Z " fill="rgb(235,235,235)"/><path d=" M 375.563 289.864 C 375.563 290.008 349.173 290.125 316.628 290.125 C 284.071 290.125 257.687 290.008 257.687 289.864 C 257.687 289.72 284.071 289.603 316.628 289.603 C 349.173 289.603 375.563 289.72 375.563 289.864 Z " fill="rgb(235,235,235)"/><path d=" M 366.899 300.341 C 366.899 300.486 363.065 300.602 358.336 300.602 C 353.606 300.602 349.772 300.486 349.772 300.341 C 349.772 300.197 353.606 300.081 358.336 300.081 C 363.065 300.081 366.899 300.197 366.899 300.341 Z " fill="rgb(235,235,235)"/><path d=" M 175.276 312.218 C 175.275 312.237 175.049 312.243 174.622 312.24 C 174.194 312.246 173.564 312.203 172.754 312.222 C 171.132 312.214 168.784 312.295 165.909 312.643 C 160.183 313.307 152.27 315.363 144.713 319.976 C 137.154 324.588 131.71 330.689 128.5 335.478 C 126.879 337.875 125.732 339.927 124.999 341.372 C 124.611 342.086 124.363 342.664 124.161 343.042 C 123.968 343.424 123.86 343.621 123.843 343.614 C 123.827 343.607 123.904 343.396 124.065 342.999 C 124.236 342.607 124.456 342.013 124.818 341.282 C 125.498 339.805 126.599 337.714 128.195 335.274 C 131.346 330.399 136.804 324.192 144.443 319.531 C 152.078 314.868 160.092 312.852 165.868 312.277 C 168.767 311.974 171.13 311.948 172.757 312.019 C 173.57 312.032 174.2 312.108 174.628 312.135 C 175.054 312.172 175.277 312.2 175.276 312.218 Z " fill="rgb(235,235,235)"/><path d=" M 476.7 287.088 C 476.7 287.232 459.228 287.349 437.68 287.349 C 416.125 287.349 398.656 287.232 398.656 287.088 C 398.656 286.944 416.125 286.828 437.68 286.828 C 459.228 286.828 476.7 286.944 476.7 287.088 Z " fill="rgb(235,235,235)"/><path d=" M 510.919 298.806 C 510.914 298.88 509.836 298.866 508.099 298.825 C 506.36 298.784 503.962 298.727 501.312 298.712 C 498.661 298.699 496.262 298.729 494.523 298.752 C 492.785 298.774 491.708 298.778 491.703 298.703 C 491.699 298.634 492.77 298.5 494.509 298.384 C 496.247 298.267 498.654 298.177 501.315 298.191 C 503.974 298.206 506.38 298.322 508.117 298.456 C 509.855 298.592 510.924 298.737 510.919 298.806 Z " fill="rgb(235,235,235)"/><path d=" M 574.236 208.172 L 574.236 208.172 C 570.392 208.172 567.281 205.048 567.295 201.205 L 567.325 193.199 C 567.325 193.199 561.57 192.304 561.499 186.55 C 561.427 180.796 562.425 167.582 562.425 167.582 C 569.087 164.719 576.775 165.686 582.52 170.108 L 581.16 201.726 C 580.9 205.358 577.878 208.172 574.236 208.172 Z " fill="rgb(183,136,118)"/><path d=" M 567.315 193.116 C 567.315 193.116 570.952 193.412 574.817 190.984 C 574.817 190.984 573.044 195.125 567.302 194.607 L 567.315 193.116 Z " fill="rgb(170,101,80)"/><path d=" M 581.882 176.725 C 581.981 176.683 585.835 175.556 585.709 179.49 C 585.584 183.424 581.661 182.486 581.656 182.373 C 581.654 182.26 581.882 176.725 581.882 176.725 Z " fill="rgb(183,136,118)"/><path d=" M 582.907 180.921 C 582.925 180.909 582.974 180.971 583.088 181.028 C 583.199 181.083 583.392 181.125 583.6 181.055 C 584.02 180.916 584.391 180.267 584.433 179.559 C 584.455 179.201 584.39 178.858 584.272 178.571 C 584.162 178.279 583.982 178.072 583.774 178.028 C 583.567 177.974 583.415 178.094 583.363 178.204 C 583.307 178.312 583.33 178.391 583.308 178.397 C 583.298 178.407 583.226 178.329 583.263 178.167 C 583.282 178.089 583.331 177.998 583.426 177.926 C 583.523 177.852 583.663 177.817 583.808 177.838 C 584.111 177.868 584.375 178.156 584.505 178.47 C 584.651 178.787 584.731 179.173 584.707 179.575 C 584.657 180.366 584.227 181.095 583.653 181.242 C 583.374 181.305 583.145 181.214 583.03 181.117 C 582.911 181.017 582.893 180.928 582.907 180.921 Z " fill="rgb(170,101,80)"/><path d=" M 564.513 176.5 C 564.498 176.934 564.853 177.305 565.306 177.329 C 565.758 177.353 566.137 177.022 566.153 176.588 C 566.168 176.154 565.814 175.783 565.362 175.758 C 564.909 175.734 564.529 176.066 564.513 176.5 Z " fill="rgb(38,50,56)"/><path d=" M 563.514 175.677 C 563.616 175.784 564.239 175.323 565.122 175.326 C 566.006 175.316 566.655 175.771 566.75 175.662 C 566.798 175.615 566.694 175.421 566.411 175.215 C 566.133 175.01 565.659 174.811 565.108 174.813 C 564.557 174.817 564.094 175.019 563.827 175.227 C 563.556 175.435 563.463 175.629 563.514 175.677 Z " fill="rgb(38,50,56)"/><path d=" M 573.174 176.5 C 573.159 176.934 573.514 177.305 573.967 177.329 C 574.419 177.354 574.798 177.022 574.814 176.588 C 574.829 176.154 574.474 175.783 574.022 175.758 C 573.57 175.734 573.19 176.066 573.174 176.5 Z " fill="rgb(38,50,56)"/><path d=" M 572.207 175.842 C 572.309 175.949 572.933 175.488 573.815 175.491 C 574.699 175.481 575.348 175.936 575.444 175.827 C 575.491 175.78 575.389 175.586 575.104 175.38 C 574.826 175.175 574.353 174.976 573.802 174.978 C 573.25 174.982 572.787 175.184 572.52 175.392 C 572.249 175.6 572.157 175.794 572.207 175.842 Z " fill="rgb(38,50,56)"/><path d=" M 568.997 182.4 C 569.002 182.35 568.452 182.255 567.561 182.141 C 567.335 182.118 567.122 182.073 567.084 181.919 C 567.03 181.755 567.125 181.512 567.234 181.25 C 567.446 180.703 567.669 180.13 567.902 179.53 C 568.829 177.082 569.501 175.069 569.401 175.032 C 569.303 174.996 568.471 176.951 567.544 179.399 C 567.32 180.003 567.107 180.578 566.904 181.129 C 566.818 181.385 566.672 181.676 566.787 182.015 C 566.848 182.183 567.014 182.306 567.158 182.345 C 567.303 182.389 567.43 182.391 567.542 182.398 C 568.437 182.446 568.994 182.45 568.997 182.4 Z " fill="rgb(38,50,56)"/><path d=" M 571.599 183.012 C 571.455 183.004 571.453 183.964 570.632 184.645 C 569.812 185.328 568.788 185.22 568.782 185.355 C 568.768 185.415 569.009 185.541 569.441 185.553 C 569.865 185.568 570.483 185.431 570.986 185.014 C 571.487 184.597 571.703 184.039 571.736 183.646 C 571.772 183.244 571.665 183.007 571.599 183.012 Z " fill="rgb(38,50,56)"/><path d=" M 571.978 172.376 C 572.065 172.616 572.948 172.502 573.986 172.627 C 575.026 172.731 575.862 173.036 575.999 172.82 C 576.061 172.717 575.916 172.491 575.577 172.258 C 575.242 172.025 574.707 171.804 574.084 171.735 C 573.461 171.667 572.891 171.766 572.513 171.919 C 572.132 172.073 571.941 172.262 571.978 172.376 Z " fill="rgb(38,50,56)"/><path d=" M 563.84 173.118 C 563.995 173.319 564.605 173.11 565.337 173.1 C 566.069 173.065 566.69 173.236 566.832 173.026 C 566.895 172.924 566.797 172.722 566.527 172.532 C 566.259 172.343 565.813 172.188 565.309 172.203 C 564.806 172.219 564.369 172.401 564.114 172.607 C 563.856 172.813 563.771 173.02 563.84 173.118 Z " fill="rgb(38,50,56)"/><path d=" M 559.622 163.949 C 559.56 163.236 559.826 162.47 560.406 162.051 C 560.987 161.632 561.887 161.658 562.358 162.197 C 562.088 161.236 562.874 160.128 563.87 160.065 C 564.809 160.005 565.609 160.714 566.516 160.963 C 567.401 161.205 568.351 160.995 569.203 160.653 C 570.054 160.31 570.85 159.837 571.712 159.521 C 573.511 158.865 575.566 158.947 577.307 159.746 C 579.047 160.545 580.449 162.051 581.124 163.843 C 582.382 163.449 583.812 164.088 584.588 165.154 C 585.364 166.22 585.563 167.62 585.409 168.929 C 585.305 169.814 585.049 170.669 584.751 171.511 C 584.751 171.586 584.759 171.658 584.757 171.732 C 584.697 174.897 584.34 178.613 582.99 178.633 C 580.637 178.669 581.197 174.236 581.197 174.236 C 578.309 173.12 579.386 168.794 578.664 168.138 C 577.941 167.482 576.432 165.956 570.386 169.047 C 568.038 170.246 564.917 170.209 563.213 169.822 C 563.163 169.811 563.112 169.804 563.062 169.792 C 563.052 169.789 563.038 169.787 563.027 169.784 C 563.009 169.78 562.996 169.77 562.977 169.764 C 562.435 169.623 561.91 169.412 561.427 169.107 C 560.88 168.76 560.382 168.291 560.149 167.686 C 559.917 167.081 560.004 166.325 560.479 165.885 C 560.033 165.325 559.684 164.662 559.622 163.949 Z " fill="rgb(38,50,56)"/><path d=" M 630.752 202.853 C 630.606 203.095 628.971 206.177 628.971 206.177 C 628.971 206.177 630.273 201.131 630.32 200.948 C 630.743 199.3 629.723 199.471 629.424 200.06 C 629.115 200.669 627.27 205.634 627.27 205.634 C 629.002 199.145 628.461 198.574 627.974 198.472 C 627.486 198.37 625.958 204.302 625.958 204.302 C 625.958 204.302 625.408 203.289 624.393 202.589 C 622.825 201.512 620.214 202.588 620.088 203.326 C 619.962 204.063 620.895 204.27 620.895 204.27 C 622.858 203.005 624.871 204.538 624.665 206.411 C 624.459 208.284 622.087 208.024 621.791 206.69 C 621.143 203.765 620.136 204.716 620.136 204.716 L 621.145 211.168 L 620.076 214.414 L 614.241 230.243 L 603.084 218.624 C 603.084 218.624 597.118 231.811 596.978 232.253 C 596.883 232.551 602.572 238.468 606.313 242.315 C 608.337 244.397 611.128 245.551 614.032 245.509 C 618.877 245.439 623.054 242.081 624.16 237.363 L 628.572 214.63 L 630.639 207.18 C 630.639 207.18 631.384 204.154 631.561 203.446 C 631.796 202.511 631.14 202.217 630.752 202.853 Z " fill="rgb(183,136,118)"/><path d=" M 531.612 247.262 C 534.94 247.848 538.765 245.454 540.808 242.762 L 549.121 231.812 L 539.353 223.1 L 530.601 234.03 L 497.737 232.287 L 489.975 227.936 C 489.442 227.638 488.825 227.527 488.222 227.62 L 477.54 230.635 L 487.563 233.714 L 505.051 240.295 L 531.612 247.262 Z " fill="rgb(183,136,118)"/><path d=" M 606.092 408.313 L 607.47 414.096 C 607.47 414.096 616.929 426.382 619.847 425.782 C 621.759 425.388 619.409 422.183 615.811 412.851 L 615.056 408.997 L 606.092 408.313 Z " fill="rgb(232,80,91)"/><path d=" M 620.232 423.967 C 620.232 423.967 620.222 424.034 620.157 424.141 C 620.092 424.246 619.971 424.398 619.759 424.512 C 619.552 424.631 619.259 424.714 618.918 424.697 C 618.574 424.681 618.202 424.534 617.847 424.305 C 616.507 423.285 614.846 421.696 613.08 419.862 C 611.323 418.018 609.863 416.232 608.852 414.907 C 608.348 414.242 607.953 413.696 607.687 413.314 C 607.581 413.156 607.482 413.01 607.386 412.869 C 607.32 412.766 607.287 412.71 607.292 412.706 C 607.297 412.703 607.34 412.751 607.417 412.847 C 607.521 412.982 607.629 413.121 607.746 413.271 C 608.099 413.726 608.501 414.241 608.956 414.826 C 609.991 416.128 611.463 417.895 613.214 419.733 C 614.969 421.557 616.631 423.173 617.919 424.195 C 618.591 424.687 619.328 424.671 619.726 424.448 C 620.137 424.237 620.212 423.948 620.232 423.967 Z " fill="rgb(38,50,56)"/><path d=" M 618.892 420.018 C 618.887 420.05 618.593 419.991 618.127 420.058 C 617.663 420.12 617.036 420.325 616.425 420.704 C 615.807 421.074 615.367 421.564 615.148 421.978 C 614.924 422.391 614.863 422.685 614.83 422.676 C 614.813 422.674 614.828 422.367 615.031 421.918 C 615.227 421.469 615.686 420.927 616.328 420.544 C 616.96 420.152 617.625 419.957 618.114 419.927 C 618.605 419.892 618.899 420 618.892 420.018 Z " fill="rgb(38,50,56)"/><path d=" M 609.937 417.134 C 609.905 417.126 610.036 416.72 610.112 416.049 C 610.195 415.383 610.112 414.43 609.636 413.515 C 609.174 412.6 608.425 411.985 607.829 411.691 C 607.228 411.387 606.796 411.353 606.804 411.317 C 606.805 411.306 606.912 411.305 607.103 411.332 C 607.294 411.362 607.568 411.43 607.886 411.572 C 608.519 411.845 609.319 412.473 609.802 413.431 C 610.296 414.379 610.363 415.389 610.242 416.066 C 610.189 416.407 610.114 416.677 610.053 416.859 C 609.992 417.041 609.949 417.138 609.937 417.134 Z " fill="rgb(38,50,56)"/><path d=" M 606.695 409.294 C 606.747 409.274 607.042 410.078 607.219 411.106 C 607.392 412.132 607.578 412.942 607.537 412.958 C 607.481 412.978 607.209 412.165 607.037 411.14 C 606.86 410.118 606.65 409.311 606.695 409.294 Z " fill="rgb(38,50,56)"/><path d=" M 615.979 413.666 C 615.975 413.722 615.439 413.705 614.806 413.854 C 614.172 413.997 613.698 414.247 613.669 414.199 C 613.642 414.161 614.096 413.824 614.764 413.673 C 615.431 413.517 615.988 413.62 615.979 413.666 Z " fill="rgb(38,50,56)"/><path d=" M 616.174 414.658 C 616.166 414.713 615.718 414.666 615.193 414.795 C 614.665 414.916 614.286 415.159 614.255 415.114 C 614.222 415.079 614.579 414.746 615.15 414.613 C 615.719 414.475 616.188 414.612 616.174 414.658 Z " fill="rgb(38,50,56)"/><path d=" M 616.928 415.901 C 616.911 415.954 616.456 415.807 615.908 415.938 C 615.359 416.057 615.011 416.385 614.973 416.345 C 614.93 416.322 615.254 415.892 615.867 415.756 C 616.479 415.614 616.957 415.861 616.928 415.901 Z " fill="rgb(38,50,56)"/><path d=" M 615.328 413.251 C 615.326 413.263 615.213 413.255 615.012 413.216 C 614.81 413.178 614.521 413.108 614.174 412.99 C 613.826 412.871 613.421 412.702 612.995 412.466 C 612.781 412.348 612.565 412.216 612.346 412.063 C 612.139 411.9 611.878 411.695 611.873 411.335 C 611.895 410.953 612.321 410.804 612.595 410.884 C 612.888 410.958 613.082 411.16 613.253 411.325 C 613.599 411.664 613.891 411.989 614.122 412.272 C 614.354 412.556 614.527 412.796 614.641 412.965 C 614.755 413.135 614.809 413.234 614.8 413.241 C 614.776 413.259 614.507 412.897 614.022 412.358 C 613.78 412.089 613.482 411.776 613.135 411.448 C 612.962 411.286 612.777 411.113 612.554 411.062 C 612.339 411.007 612.061 411.122 612.058 411.346 C 612.051 411.564 612.261 411.773 612.452 411.915 C 612.661 412.064 612.874 412.198 613.079 412.316 C 613.491 412.556 613.883 412.733 614.219 412.866 C 614.892 413.129 615.335 413.221 615.328 413.251 Z " fill="rgb(38,50,56)"/><path d=" M 614.831 413.132 C 614.818 413.131 614.815 413.028 614.82 412.842 C 614.827 412.656 614.838 412.388 614.88 412.056 C 614.924 411.726 614.996 411.327 615.177 410.913 C 615.271 410.708 615.382 410.5 615.55 410.308 C 615.7 410.133 615.994 409.904 616.307 410.069 C 616.599 410.251 616.594 410.587 616.568 410.822 C 616.529 411.072 616.454 411.295 616.361 411.502 C 616.176 411.914 615.918 412.232 615.686 412.473 C 615.451 412.713 615.236 412.88 615.083 412.987 C 614.931 413.094 614.838 413.141 614.831 413.132 C 614.811 413.106 615.152 412.87 615.589 412.384 C 615.802 412.138 616.038 411.824 616.205 411.433 C 616.288 411.238 616.354 411.021 616.388 410.8 C 616.415 410.586 616.385 410.323 616.217 410.232 C 616.046 410.13 615.829 410.267 615.685 410.43 C 615.538 410.594 615.424 410.795 615.333 410.985 C 615.153 411.371 615.069 411.754 615.01 412.076 C 614.902 412.725 614.862 413.135 614.831 413.132 Z " fill="rgb(38,50,56)"/><g opacity="0.399994"><path d=" M 607.47 414.096 L 606.804 411.317 C 606.804 411.317 609.121 411.745 609.723 413.481 C 610.324 415.215 610.175 416.45 610.175 416.45 L 615.213 421.876 C 615.213 421.876 616.478 419.407 618.767 419.999 C 618.767 419.999 620.568 423.961 620.513 424.954 C 620.451 426.045 619.302 425.826 618.892 425.641 C 618.706 425.557 616.53 424.31 614.38 422.08 C 611.711 419.311 608.762 415.798 607.47 414.096 Z " fill="rgb(0,0,0)"/></g><path d=" M 559.068 411.236 L 559.024 403.522 L 573.472 403.347 L 573.656 414.632 L 572.761 414.7 C 568.777 414.969 552.484 415.791 549.808 415.014 C 546.825 414.149 559.068 411.236 559.068 411.236 Z " fill="rgb(232,80,91)"/><g opacity="0.399994"><path d=" M 568.417 414.581 C 568.607 413.371 569.266 412.241 570.223 411.477 C 571.181 410.715 572.365 410.304 573.588 410.387 L 573.64 414.425 L 568.417 414.581 Z " fill="rgb(0,0,0)"/></g><g opacity="0.399994"><path d=" M 553.089 412.873 C 553.089 412.873 548.801 414.166 549.347 414.868 C 549.892 415.57 566.388 415.36 573.656 414.631 L 573.63 414.309 L 554.39 414.718 C 554.39 414.718 553.93 412.897 553.089 412.873 Z " fill="rgb(0,0,0)"/></g><path d=" M 573.856 414.297 C 573.856 414.303 573.771 414.313 573.608 414.327 C 573.394 414.343 573.16 414.359 572.895 414.379 C 572.182 414.419 571.305 414.468 570.27 414.526 C 568.053 414.633 564.989 414.742 561.602 414.788 C 558.214 414.833 555.147 414.808 552.928 414.759 C 551.892 414.73 551.015 414.704 550.301 414.684 C 550.036 414.671 549.801 414.66 549.586 414.651 C 549.423 414.641 549.338 414.633 549.338 414.627 C 549.338 414.621 549.424 414.617 549.587 414.615 L 550.302 414.615 C 551.016 414.62 551.894 414.627 552.93 414.635 C 555.149 414.651 558.213 414.658 561.599 414.613 C 564.984 414.567 568.047 414.478 570.265 414.401 C 571.3 414.366 572.178 414.336 572.891 414.311 C 573.157 414.304 573.391 414.297 573.606 414.291 C 573.769 414.289 573.855 414.291 573.856 414.297 Z " fill="rgb(38,50,56)"/><path d=" M 554.396 414.942 C 554.342 414.95 554.293 414.323 553.889 413.695 C 553.497 413.06 552.952 412.746 552.982 412.701 C 552.992 412.657 553.614 412.921 554.038 413.601 C 554.469 414.276 554.44 414.952 554.396 414.942 Z " fill="rgb(38,50,56)"/><path d=" M 558.632 412.725 C 558.592 412.751 558.385 412.505 558.17 412.176 C 557.954 411.847 557.813 411.559 557.853 411.532 C 557.893 411.505 558.102 411.751 558.316 412.08 C 558.531 412.41 558.673 412.699 558.632 412.725 Z " fill="rgb(38,50,56)"/><path d=" M 559.794 412.091 C 559.762 412.127 559.532 411.979 559.28 411.758 C 559.028 411.537 558.851 411.329 558.882 411.293 C 558.914 411.256 559.145 411.405 559.396 411.626 C 559.648 411.847 559.826 412.055 559.794 412.091 Z " fill="rgb(38,50,56)"/><path d=" M 560.516 410.718 C 560.517 410.767 560.18 410.814 559.763 410.823 C 559.346 410.834 559.007 410.803 559.006 410.754 C 559.005 410.706 559.342 410.658 559.759 410.649 C 560.175 410.639 560.515 410.67 560.516 410.718 Z " fill="rgb(38,50,56)"/><path d=" M 560.757 409.753 C 560.774 409.796 560.408 409.967 559.919 410.008 C 559.43 410.053 559.04 409.949 559.049 409.903 C 559.057 409.854 559.439 409.877 559.903 409.834 C 560.368 409.795 560.741 409.705 560.757 409.753 Z " fill="rgb(38,50,56)"/><path d=" M 558.126 411.471 C 558.127 411.491 557.772 411.538 557.197 411.477 C 556.911 411.446 556.572 411.382 556.206 411.271 C 556.024 411.209 555.835 411.163 555.638 411.045 C 555.545 410.985 555.441 410.901 555.404 410.76 C 555.364 410.621 555.437 410.464 555.54 410.387 C 556.422 409.915 557.316 410.404 557.651 410.858 C 557.836 411.09 557.922 411.317 557.963 411.474 C 558.002 411.632 558 411.723 557.989 411.724 C 557.957 411.737 557.922 411.36 557.557 410.938 C 557.377 410.731 557.105 410.531 556.757 410.432 C 556.428 410.339 555.961 410.319 555.651 410.522 C 555.506 410.633 555.565 410.806 555.73 410.901 C 555.885 410.997 556.083 411.055 556.255 411.117 C 556.608 411.234 556.937 411.308 557.214 411.354 C 557.772 411.446 558.126 411.442 558.126 411.471 Z " fill="rgb(38,50,56)"/><path d=" M 557.885 411.52 C 557.872 411.53 557.732 411.294 557.77 410.876 C 557.79 410.671 557.863 410.427 558.015 410.195 C 558.176 409.987 558.383 409.701 558.781 409.711 C 558.997 409.737 559.106 409.981 559.073 410.137 C 559.059 410.3 558.988 410.44 558.921 410.554 C 558.785 410.788 558.632 410.977 558.489 411.122 C 558.202 411.41 557.974 411.521 557.963 411.503 C 557.947 411.481 558.146 411.334 558.399 411.038 C 558.524 410.889 558.659 410.701 558.78 410.475 C 558.905 410.278 558.988 409.924 558.754 409.885 C 558.522 409.866 558.287 410.1 558.148 410.287 C 558.004 410.49 557.926 410.707 557.893 410.894 C 557.826 411.273 557.916 411.512 557.885 411.52 Z " fill="rgb(38,50,56)"/><path d=" M 573.51 410.348 C 573.508 410.38 573.096 410.313 572.444 410.399 C 571.798 410.479 570.902 410.755 570.127 411.388 C 569.354 412.022 568.905 412.846 568.698 413.463 C 568.486 414.085 568.469 414.502 568.437 414.498 C 568.426 414.497 568.419 414.394 568.433 414.206 C 568.446 414.02 568.487 413.749 568.58 413.425 C 568.761 412.783 569.209 411.913 570.017 411.252 C 570.823 410.593 571.764 410.326 572.43 410.276 C 572.766 410.247 573.039 410.261 573.226 410.286 C 573.411 410.31 573.512 410.337 573.51 410.348 Z " fill="rgb(38,50,56)"/><path d=" M 571.937 404.354 C 571.985 404.353 572.058 405.681 572.099 407.32 C 572.141 408.959 572.136 410.29 572.087 410.291 C 572.04 410.291 571.966 408.964 571.924 407.325 C 571.883 405.685 571.888 404.355 571.937 404.354 Z " fill="rgb(38,50,56)"/><path d=" M 566.58 413.196 C 566.587 413.241 565.647 413.408 564.474 413.432 C 563.3 413.46 562.354 413.336 562.358 413.29 C 562.363 413.239 563.307 413.285 564.47 413.258 C 565.633 413.233 566.574 413.145 566.58 413.196 Z " fill="rgb(38,50,56)"/><path d=" M 569.412 413.156 C 569.447 413.191 569.338 413.357 569.244 413.575 C 569.147 413.791 569.1 413.985 569.05 413.982 C 569.004 413.982 568.973 413.755 569.083 413.505 C 569.192 413.253 569.381 413.121 569.412 413.156 Z " fill="rgb(38,50,56)"/><path d=" M 570.463 411.814 C 570.497 411.847 570.406 412 570.259 412.153 C 570.111 412.306 569.963 412.403 569.928 412.37 C 569.894 412.336 569.983 412.185 570.132 412.031 C 570.279 411.877 570.428 411.781 570.463 411.814 Z " fill="rgb(38,50,56)"/><path d=" M 571.981 411.188 C 571.972 411.237 571.78 411.238 571.569 411.315 C 571.356 411.387 571.206 411.507 571.168 411.475 C 571.128 411.449 571.248 411.242 571.51 411.15 C 571.773 411.056 571.996 411.143 571.981 411.188 Z " fill="rgb(38,50,56)"/><path d=" M 573.065 410.887 C 573.083 410.932 573.001 411.007 572.881 411.056 C 572.762 411.104 572.651 411.106 572.632 411.061 C 572.615 411.017 572.697 410.941 572.816 410.893 C 572.935 410.845 573.046 410.843 573.065 410.887 Z " fill="rgb(38,50,56)"/><path d=" M 621.443 409.343 L 592.873 258.04 L 553.157 264.089 L 555.98 407.911 L 578.48 408.384 L 574.744 282.913 L 600.051 409.343 L 621.443 409.343 Z " fill="rgb(69,90,100)"/><path d=" M 597.262 272.513 L 551.866 270.818 L 553.157 229.391 L 547.205 236.175 L 535.073 225.67 L 548.422 207.476 C 551.887 202.793 557.105 199.714 562.876 198.928 C 564.571 198.697 565.859 198.585 566.696 198.48 C 571.632 200 576.57 199.997 581.507 198.471 C 583.796 198.568 585.775 198.971 587.639 199.646 C 591.477 201.034 594.685 203.137 597.424 205.981 L 597.426 205.977 L 612.319 226.111 L 599.587 237.126 L 592.335 230.747 L 597.262 272.513 Z " fill="rgb(38,50,56)"/><path d=" M 553.835 213.753 C 553.98 213.758 553.838 220.649 553.521 229.143 C 553.203 237.639 552.829 244.521 552.686 244.515 C 552.542 244.51 552.683 237.62 553 229.124 C 553.317 220.63 553.691 213.748 553.835 213.753 Z " fill="rgb(69,90,100)"/><path d=" M 590.722 216.47 C 590.866 216.456 591.368 220.441 591.844 225.37 C 592.321 230.3 592.591 234.306 592.448 234.32 C 592.305 234.334 591.802 230.35 591.326 225.42 C 590.849 220.491 590.578 216.484 590.722 216.47 Z " fill="rgb(69,90,100)"/><path d=" M 568.498 198.934 C 568.587 199.047 568.243 199.464 567.731 199.865 C 567.219 200.266 566.732 200.498 566.644 200.385 C 566.555 200.272 566.898 199.855 567.41 199.455 C 567.923 199.054 568.409 198.821 568.498 198.934 Z " fill="rgb(69,90,100)"/><path d=" M 570.563 199.382 C 570.691 199.453 570.595 199.865 570.461 200.346 C 570.324 200.825 570.189 201.227 570.042 201.22 C 569.902 201.215 569.805 200.749 569.96 200.204 C 570.114 199.659 570.44 199.312 570.563 199.382 Z " fill="rgb(69,90,100)"/><path d=" M 572.915 199.676 C 573.059 199.669 573.194 200.058 573.218 200.546 C 573.242 201.033 573.144 201.433 573.001 201.441 C 572.857 201.447 572.722 201.058 572.698 200.571 C 572.674 200.084 572.771 199.683 572.915 199.676 Z " fill="rgb(69,90,100)"/><path d=" M 575.931 199.454 C 576.077 199.452 576.201 199.872 576.337 200.371 C 576.469 200.87 576.574 201.295 576.446 201.367 C 576.325 201.438 575.987 201.075 575.834 200.506 C 575.68 199.937 575.79 199.454 575.931 199.454 Z " fill="rgb(69,90,100)"/><path d=" M 579.303 199.092 C 579.441 199.042 579.674 199.344 579.944 199.697 C 580.208 200.053 580.435 200.361 580.349 200.479 C 580.269 200.595 579.847 200.435 579.528 200.01 C 579.207 199.587 579.169 199.137 579.303 199.092 Z " fill="rgb(69,90,100)"/><path d=" M 581.074 198.582 C 581.152 198.461 581.496 198.545 581.841 198.769 C 582.185 198.994 582.401 199.273 582.323 199.394 C 582.244 199.515 581.901 199.431 581.556 199.206 C 581.212 198.982 580.996 198.702 581.074 198.582 Z " fill="rgb(69,90,100)"/><path d=" M 591.674 226.312 C 591.674 226.456 583.163 226.578 572.666 226.585 C 562.165 226.592 553.655 226.481 553.655 226.338 C 553.655 226.194 562.165 226.072 572.665 226.064 C 583.161 226.058 591.674 226.168 591.674 226.312 Z " fill="rgb(250,250,250)"/><path d=" M 592.001 229.123 C 592.001 229.267 583.489 229.389 572.993 229.396 C 562.492 229.403 553.982 229.292 553.982 229.148 C 553.982 229.005 562.491 228.882 572.992 228.875 C 583.489 228.868 592.001 228.979 592.001 229.123 Z " fill="rgb(250,250,250)"/><path d=" M 592.328 231.934 C 592.329 232.078 583.584 232.272 572.798 232.368 C 562.007 232.463 553.262 232.424 553.261 232.28 C 553.259 232.137 562.003 231.942 572.793 231.847 C 583.579 231.751 592.327 231.79 592.328 231.934 Z " fill="rgb(250,250,250)"/><path d=" M 604.665 215.484 C 604.713 215.534 604.098 216.224 603.036 217.273 C 601.976 218.321 600.462 219.722 598.724 221.192 C 596.983 222.661 595.35 223.92 594.139 224.791 C 592.928 225.663 592.144 226.154 592.103 226.098 C 592.06 226.038 592.764 225.443 593.914 224.499 C 595.208 223.427 596.718 222.176 598.387 220.794 C 600.028 219.38 601.514 218.099 602.786 217.003 C 603.908 216.026 604.613 215.431 604.665 215.484 Z " fill="rgb(250,250,250)"/><path d=" M 606.966 217.999 C 607.012 218.051 606.283 218.785 605.04 219.897 C 603.797 221.01 602.031 222.495 600.013 224.047 C 597.993 225.6 596.106 226.925 594.711 227.841 C 593.317 228.757 592.421 229.273 592.382 229.215 C 592.341 229.153 593.163 228.53 594.5 227.54 C 595.837 226.549 597.684 225.181 599.695 223.635 C 601.706 222.087 603.501 220.654 604.802 219.616 C 606.104 218.578 606.917 217.943 606.966 217.999 Z " fill="rgb(250,250,250)"/><path d=" M 608.134 220.375 C 608.228 220.484 605.185 223.238 601.338 226.525 C 597.489 229.814 594.295 232.39 594.202 232.281 C 594.109 232.171 597.152 229.418 600.999 226.13 C 604.846 222.843 608.041 220.266 608.134 220.375 Z " fill="rgb(250,250,250)"/><path d=" M 553.299 227.189 C 553.265 227.245 552.487 226.855 551.366 226.01 C 550.242 225.173 548.823 223.851 547.368 222.307 C 545.91 220.766 544.618 219.349 543.698 218.307 C 542.78 217.264 542.238 216.595 542.291 216.545 C 542.343 216.496 542.98 217.076 543.967 218.054 C 544.954 219.031 546.291 220.41 547.745 221.948 C 549.196 223.487 550.55 224.827 551.598 225.724 C 552.64 226.627 553.341 227.123 553.299 227.189 Z " fill="rgb(250,250,250)"/><path d=" M 552.018 230.618 C 551.973 230.671 551.219 230.123 550.063 229.16 C 548.907 228.198 547.354 226.813 545.715 225.205 C 544.077 223.595 542.664 222.068 541.681 220.929 C 540.698 219.79 540.136 219.047 540.188 219.001 C 540.244 218.951 540.902 219.608 541.952 220.68 C 543.001 221.751 544.449 223.231 546.08 224.834 C 547.711 226.435 549.217 227.855 550.307 228.885 C 551.398 229.915 552.067 230.561 552.018 230.618 Z " fill="rgb(250,250,250)"/><path d=" M 550.618 233.064 C 550.562 233.114 549.888 232.453 548.805 231.381 C 547.722 230.31 546.222 228.836 544.522 227.254 C 542.821 225.674 541.242 224.285 540.094 223.283 C 538.946 222.281 538.238 221.656 538.284 221.597 C 538.326 221.543 539.116 222.066 540.328 222.999 C 541.54 223.931 543.166 225.284 544.877 226.873 C 546.586 228.463 548.054 229.987 549.071 231.128 C 550.09 232.269 550.67 233.018 550.618 233.064 Z " fill="rgb(250,250,250)"/><path d=" M 597.168 270.596 C 597.164 270.74 587.076 270.604 574.639 270.291 C 562.197 269.98 552.118 269.611 552.121 269.467 C 552.125 269.324 562.211 269.459 574.652 269.771 C 587.09 270.082 597.171 270.452 597.168 270.596 Z " fill="rgb(69,90,100)"/><path d=" M 698.502 357.023 C 701.134 358.224 703.038 360.712 703.967 363.453 C 704.895 366.192 704.927 369.167 704.547 372.034 C 703.813 377.582 700.547 383.135 697.063 387.513 C 692.457 383.339 691.515 376.191 691.264 372.535 C 690.868 366.756 693.661 356.071 698.502 357.023 Z " fill="rgb(232,80,91)"/><path d=" M 702.332 396.792 C 701.642 393.635 703.014 390.213 705.467 388.109 C 707.919 386.005 711.306 385.159 714.522 385.466 C 716.01 385.608 717.611 386.072 718.441 387.315 C 719.217 388.477 719.097 390.075 718.427 391.3 C 717.757 392.525 716.62 393.43 715.423 394.149 C 711.318 396.619 706.893 398.255 702.332 396.792 Z " fill="rgb(232,80,91)"/><path d=" M 696.007 413.727 C 695.978 413.72 696.051 413.316 696.195 412.588 C 696.358 411.789 696.568 410.754 696.819 409.512 C 697.386 406.942 698.118 403.258 700.191 399.708 C 702.237 396.166 705.055 393.583 707.411 392.319 C 708.582 391.671 709.603 391.291 710.322 391.097 C 710.678 390.985 710.967 390.945 711.156 390.902 C 711.349 390.865 711.452 390.852 711.454 390.866 C 711.486 390.956 709.825 391.224 707.555 392.568 C 705.279 393.872 702.554 396.43 700.541 399.913 C 698.51 403.388 697.736 407.02 697.099 409.575 C 696.791 410.864 696.541 411.908 696.349 412.624 C 696.156 413.341 696.032 413.733 696.007 413.727 Z " fill="rgb(38,50,56)"/><path d=" M 697.093 365.347 C 697.107 365.347 697.123 365.519 697.141 365.847 C 697.155 366.217 697.175 366.693 697.198 367.282 C 697.242 368.528 697.281 370.331 697.311 372.56 C 697.371 377.018 697.368 383.177 697.212 389.978 C 697.054 396.782 696.772 402.935 696.505 407.385 C 696.372 409.61 696.249 411.41 696.149 412.653 C 696.097 413.239 696.056 413.713 696.024 414.082 C 695.991 414.41 695.967 414.58 695.953 414.579 C 695.939 414.578 695.936 414.406 695.943 414.077 C 695.955 413.707 695.971 413.232 695.99 412.643 C 696.046 411.347 696.124 409.559 696.218 407.37 C 696.411 402.918 696.649 396.767 696.807 389.968 C 696.963 383.172 697.011 377.017 697.025 372.561 C 697.031 370.37 697.037 368.58 697.041 367.284 C 697.048 366.695 697.055 366.219 697.059 365.848 C 697.068 365.52 697.079 365.347 697.093 365.347 Z " fill="rgb(38,50,56)"/><path d=" M 694.168 400.024 C 693.23 393.277 688.81 387.11 682.723 384.052 C 681.173 383.274 679.139 382.746 677.831 383.885 C 676.521 385.026 676.77 387.124 677.37 388.754 C 679.865 395.541 686.818 400.428 694.049 400.479" fill="rgb(232,80,91)"/><path d=" M 683.382 389.34 C 683.395 389.315 683.743 389.477 684.367 389.791 C 684.68 389.947 685.063 390.139 685.478 390.411 C 685.895 390.682 686.399 390.947 686.891 391.334 C 687.396 391.704 687.958 392.099 688.502 392.596 C 689.075 393.06 689.632 393.618 690.213 394.209 C 691.344 395.419 692.478 396.861 693.44 398.52 C 694.386 400.189 695.06 401.895 695.526 403.486 C 695.733 404.289 695.934 405.052 696.031 405.783 C 696.176 406.507 696.224 407.193 696.276 407.817 C 696.349 408.44 696.31 409.008 696.32 409.504 C 696.334 410 696.295 410.427 696.26 410.775 C 696.195 411.471 696.147 411.853 696.118 411.85 C 696.027 411.844 696.215 410.305 695.988 407.841 C 695.92 407.227 695.858 406.552 695.7 405.842 C 695.589 405.124 695.38 404.377 695.166 403.59 C 694.69 402.03 694.017 400.361 693.088 398.722 C 692.145 397.092 691.039 395.67 689.94 394.465 C 689.376 393.876 688.838 393.318 688.281 392.849 C 687.753 392.348 687.209 391.946 686.722 391.566 C 684.737 390.086 683.339 389.417 683.382 389.34 Z " fill="rgb(38,50,56)"/><path d=" M 532.756 168.169 C 531.567 167.08 528.664 167.057 527.403 168.986 C 526.176 166.948 523.178 166.951 521.967 168.06 C 520.404 169.49 520.213 171.862 521.304 173.581 C 522.805 175.944 525.666 176.962 527.442 179.093 C 529.217 176.962 531.934 176.051 533.435 173.689 C 534.527 171.97 534.318 169.599 532.756 168.169 Z " fill="rgb(232,80,91)"/><path d=" M 546.962 189.21 C 546.972 189.218 546.751 189.188 546.312 189.124 C 545.836 189.053 545.185 188.956 544.355 188.833 C 542.575 188.56 540.032 188.172 536.826 187.682 L 536.931 187.659 C 534.666 189.226 531.551 190.571 527.854 190.798 C 524.187 191.05 519.953 190.092 516.301 187.537 C 512.66 185.016 509.706 180.803 508.862 175.823 C 507.969 170.884 509.264 165.28 512.766 161.081 C 516.331 156.804 521.716 154.435 526.838 154.515 C 531.986 154.519 536.694 156.81 539.792 160.052 C 542.97 163.284 544.486 167.403 544.814 171.064 C 545.159 174.767 544.26 178.029 543.079 180.46 L 543.08 180.342 C 544.322 183.164 545.301 185.388 545.984 186.941 C 546.299 187.664 546.546 188.23 546.726 188.645 C 546.891 189.026 546.972 189.218 546.962 189.21 C 546.956 189.206 546.929 189.152 546.879 189.051 C 546.82 188.929 546.75 188.783 546.663 188.603 C 546.465 188.185 546.194 187.613 545.848 186.884 C 545.137 185.372 544.118 183.206 542.826 180.458 L 542.8 180.4 L 542.828 180.34 C 543.958 177.928 544.805 174.721 544.438 171.097 C 544.086 167.516 542.58 163.505 539.466 160.369 C 536.429 157.221 531.843 155.012 526.836 155.019 C 521.854 154.952 516.631 157.26 513.165 161.414 C 509.766 165.494 508.502 170.93 509.359 175.737 C 510.168 180.579 513.025 184.689 516.564 187.164 C 520.112 189.67 524.237 190.634 527.831 190.416 C 531.451 190.221 534.521 188.935 536.769 187.421 L 536.817 187.388 L 536.873 187.398 C 540.02 187.958 542.516 188.401 544.262 188.711 C 545.107 188.864 545.769 188.984 546.253 189.072 C 546.464 189.112 546.633 189.143 546.775 189.169 C 546.893 189.192 546.956 189.206 546.962 189.21 Z " fill="rgb(38,50,56)"/></g></g></svg>