<?xml version="1.0" encoding="UTF-8" standalone="no"?>
<!-- Generator: Gravit.io -->
<svg xmlns="http://www.w3.org/2000/svg" xmlns:xlink="http://www.w3.org/1999/xlink" style="isolation:isolate" viewBox="0 0 750 500" width="750pt" height="500pt"><defs><clipPath id="_clipPath_CktuCDabcefEPoDqczR7K69IH6f2xx7d"><rect width="750" height="500"/></clipPath></defs><g clip-path="url(#_clipPath_CktuCDabcefEPoDqczR7K69IH6f2xx7d)"><path d=" M 0.219 500 L 750 500 L 750 0 L 0.219 0 L 0.219 500 Z " fill="rgb(238,238,238)"/><line x1="125.977" y1="158.678" x2="625.346" y2="158.678" vector-effect="non-scaling-stroke" stroke-width="1.968" stroke="rgb(222,216,213)" stroke-linejoin="miter" stroke-linecap="square" stroke-miterlimit="3"/><clipPath id="_clipPath_R3lVfugo6re97XdNJkrCP0xkOthzYUal"><path d=" M 0 0 L 750 0 L 750 500 L 0 500 L 0 0 Z " fill="rgb(255,255,255)"/></clipPath><g clip-path="url(#_clipPath_R3lVfugo6re97XdNJkrCP0xkOthzYUal)"><path d=" M 618.824 434.908 L 132.498 434.908 C 128.896 434.908 125.976 431.988 125.976 428.387 L 125.976 132.464 C 125.976 128.863 128.896 125.943 132.498 125.943 L 618.824 125.943 C 622.426 125.943 625.345 128.863 625.345 132.464 L 625.345 428.387 C 625.345 431.988 622.426 434.908 618.824 434.908 Z " fill="none" vector-effect="non-scaling-stroke" stroke-width="1.968" stroke="rgb(222,216,213)" stroke-linejoin="miter" stroke-linecap="square" stroke-miterlimit="3"/><path d=" M 158.887 142.645 C 158.887 145.166 156.842 147.213 154.319 147.213 C 151.796 147.213 149.751 145.166 149.751 142.645 C 149.751 140.122 151.796 138.076 154.319 138.076 C 156.842 138.076 158.887 140.122 158.887 142.645 Z " fill="rgb(255,177,165)"/><path d=" M 176.64 142.645 C 176.64 145.166 174.595 147.213 172.072 147.213 C 169.549 147.213 167.504 145.166 167.504 142.645 C 167.504 140.122 169.549 138.076 172.072 138.076 C 174.595 138.076 176.64 140.122 176.64 142.645 Z " fill="rgb(234,210,84)"/><path d=" M 194.392 142.645 C 194.392 145.166 192.347 147.213 189.824 147.213 C 187.301 147.213 185.256 145.166 185.256 142.645 C 185.256 140.122 187.301 138.076 189.824 138.076 C 192.347 138.076 194.392 140.122 194.392 142.645 Z " fill="rgb(0,133,123)"/><path d=" M 690.218 268.937 L 572.857 268.937 C 569.548 268.937 566.865 266.254 566.865 262.946 L 566.865 154.404 C 566.865 151.096 569.548 148.414 572.857 148.414 L 690.218 148.414 C 693.527 148.414 696.209 151.096 696.209 154.404 L 696.209 262.946 C 696.209 266.254 693.527 268.937 690.218 268.937 Z " fill="rgb(237,237,237)"/><path d=" M 690.218 268.937 L 572.857 268.937 C 569.548 268.937 566.865 266.254 566.865 262.946 L 566.865 154.404 C 566.865 151.096 569.548 148.414 572.857 148.414 L 690.218 148.414 C 693.527 148.414 696.209 151.096 696.209 154.404 L 696.209 262.946 C 696.209 266.254 693.527 268.937 690.218 268.937 Z " fill="none" vector-effect="non-scaling-stroke" stroke-width="1.968" stroke="rgb(222,216,213)" stroke-linejoin="miter" stroke-linecap="square" stroke-miterlimit="3"/><path d=" M 601.23 237.584 L 662.228 237.584 C 665.554 237.584 668.251 234.888 668.251 231.563 L 668.251 181.571 C 668.251 178.246 665.554 175.55 662.228 175.55 L 601.23 175.55 C 597.905 175.55 595.209 178.246 595.209 181.571 L 595.209 231.563 C 595.209 234.888 597.905 237.584 601.23 237.584 Z " fill="rgb(201,139,210)"/><path d=" M 648.391 216.881 L 619.84 216.881 L 614.684 216.881 L 614.684 194.276 L 648.391 194.276 L 648.391 199.927 L 648.391 216.881 Z " fill="none" vector-effect="non-scaling-stroke" stroke-width="1.647" stroke="rgb(255,255,255)" stroke-linejoin="miter" stroke-linecap="square" stroke-miterlimit="3"/><path d=" M 614.684 194.276 L 631.538 207.558 L 648.391 194.276" fill="none" vector-effect="non-scaling-stroke" stroke-width="1.647" stroke="rgb(255,255,255)" stroke-linejoin="miter" stroke-linecap="square" stroke-miterlimit="3"/><path d=" M 173.75 359.825 L 61.824 359.825 C 58.668 359.825 56.111 357.266 56.111 354.111 L 56.111 256.527 C 56.111 253.372 58.668 250.814 61.824 250.814 L 173.75 250.814 C 176.905 250.814 179.463 253.372 179.463 256.527 L 179.463 354.111 C 179.463 357.266 176.905 359.825 173.75 359.825 Z " fill="rgb(237,237,237)"/><path d=" M 173.75 359.825 L 61.824 359.825 C 58.668 359.825 56.111 357.266 56.111 354.111 L 56.111 256.527 C 56.111 253.372 58.668 250.814 61.824 250.814 L 173.75 250.814 C 176.905 250.814 179.463 253.372 179.463 256.527 L 179.463 354.111 C 179.463 357.266 176.905 359.825 173.75 359.825 Z " fill="none" vector-effect="non-scaling-stroke" stroke-width="1.968" stroke="rgb(222,216,213)" stroke-linejoin="miter" stroke-linecap="square" stroke-miterlimit="3"/><path d=" M 146.521 338.823 L 88.471 338.823 C 84.804 338.823 81.833 335.85 81.833 332.183 L 81.833 276.123 C 81.833 272.456 84.804 269.484 88.471 269.484 L 146.521 269.484 C 150.188 269.484 153.16 272.456 153.16 276.123 L 153.16 332.183 C 153.16 335.85 150.188 338.823 146.521 338.823 Z " fill="rgb(255,177,165)"/><path d=" M 136.086 303.622 L 127.417 303.622 C 127.37 301.016 127.031 298.409 126.386 295.804 L 133.747 295.804 C 135.077 298.136 135.904 300.791 136.086 303.622 Z  M 133.747 313.799 L 126.153 313.799 C 126.84 311.192 127.254 308.587 127.381 305.98 L 136.086 305.98 C 135.905 308.811 135.077 311.467 133.747 313.799 Z  M 122.972 322.287 C 123.961 320.244 124.791 318.201 125.457 316.157 L 132.145 316.157 C 129.825 319.058 126.636 321.232 122.972 322.287 Z  M 117.931 322.995 C 117.123 322.995 116.328 322.942 115.548 322.84 C 114.436 320.612 113.489 318.385 112.728 316.157 L 123.135 316.157 C 122.373 318.385 121.426 320.612 120.315 322.84 C 119.535 322.942 118.739 322.995 117.931 322.995 Z  M 103.718 316.157 L 110.405 316.157 C 111.072 318.2 111.902 320.244 112.891 322.287 C 109.227 321.232 106.038 319.058 103.718 316.157 Z  M 102.115 313.799 C 100.785 311.467 99.958 308.811 99.776 305.98 L 108.482 305.98 C 108.608 308.586 109.023 311.192 109.71 313.799 L 102.115 313.799 Z  M 102.115 295.804 L 109.477 295.804 C 108.831 298.409 108.493 301.016 108.445 303.622 L 99.776 303.622 C 99.958 300.791 100.786 298.136 102.115 295.804 Z  M 112.644 287.389 C 111.619 289.407 110.789 291.427 110.145 293.445 L 103.718 293.445 C 105.985 290.61 109.084 288.469 112.644 287.389 Z  M 117.931 286.607 C 118.901 286.607 119.852 286.684 120.78 286.829 C 122.016 289.035 122.984 291.24 123.705 293.445 L 112.158 293.445 C 112.878 291.24 113.847 289.035 115.082 286.829 C 116.01 286.684 116.962 286.607 117.931 286.607 Z  M 125.257 305.98 C 125.08 308.586 124.607 311.192 123.872 313.799 L 111.991 313.799 C 111.255 311.193 110.783 308.587 110.605 305.98 L 125.257 305.98 Z  M 110.526 303.622 C 110.529 301.016 110.836 298.409 111.482 295.804 L 124.381 295.804 C 125.026 298.409 125.334 301.016 125.336 303.622 L 110.526 303.622 Z  M 132.145 293.445 L 125.718 293.445 C 125.073 291.427 124.243 289.407 123.219 287.389 C 126.779 288.469 129.878 290.61 132.145 293.445 Z  M 103.671 290.541 C 95.839 298.373 95.839 311.229 103.671 319.061 C 111.503 326.893 124.359 326.893 132.191 319.061 C 140.023 311.229 140.023 298.373 132.191 290.541 C 124.359 282.709 111.503 282.709 103.671 290.541 Z " fill="rgb(255,255,255)"/><path d=" M 167.079 97.432 L 65.681 97.432 C 63.586 97.432 61.888 95.734 61.888 93.639 C 61.888 91.544 63.586 89.846 65.681 89.846 L 167.079 89.846 C 169.174 89.846 170.872 91.544 170.872 93.639 C 170.872 95.734 169.174 97.432 167.079 97.432 Z " fill="rgb(201,139,210)"/><path d=" M 694.35 345.116 L 645.135 345.116 C 643.04 345.116 641.342 343.418 641.342 341.323 C 641.342 339.228 643.04 337.53 645.135 337.53 L 694.35 337.53 C 696.445 337.53 698.143 339.228 698.143 341.323 C 698.143 343.418 696.445 345.116 694.35 345.116 Z " fill="rgb(86,223,237)"/><path d=" M 659.881 388.993 L 653.867 388.993 C 652.287 388.993 651.006 387.712 651.006 386.132 L 651.006 380.486 C 651.006 378.906 652.287 377.626 653.867 377.626 L 659.881 377.626 C 661.461 377.626 662.742 378.906 662.742 380.486 L 662.742 386.132 C 662.742 387.712 661.461 388.993 659.881 388.993 Z " fill="rgb(201,139,210)"/><path d=" M 89.834 415.27 L 83.82 415.27 C 82.24 415.27 80.959 413.991 80.959 412.41 L 80.959 406.765 C 80.959 405.184 82.24 403.903 83.82 403.903 L 89.834 403.903 C 91.414 403.903 92.695 405.184 92.695 406.765 L 92.695 412.41 C 92.695 413.991 91.414 415.27 89.834 415.27 Z " fill="rgb(255,177,165)"/><path d=" M 550.108 93.514 L 450.025 93.514 C 448.361 93.514 447.012 92.165 447.012 90.502 L 447.012 66.066 C 447.012 64.403 448.361 63.055 450.025 63.055 L 550.108 63.055 C 551.772 63.055 553.12 64.403 553.12 66.066 L 553.12 90.502 C 553.12 92.165 551.772 93.514 550.108 93.514 Z " fill="rgb(255,177,165)"/><line x1="461.466" y1="73.908" x2="532.644" y2="73.908" vector-effect="non-scaling-stroke" stroke-width="1.18" stroke="rgb(255,255,255)" stroke-linejoin="miter" stroke-linecap="square" stroke-miterlimit="3"/><line x1="461.466" y1="81.213" x2="490.458" y2="81.213" vector-effect="non-scaling-stroke" stroke-width="1.18" stroke="rgb(255,255,255)" stroke-linejoin="miter" stroke-linecap="square" stroke-miterlimit="3"/><path d=" M 458.57 90.068 L 458.57 101.939 L 473.5 90.068 L 458.57 90.068 Z " fill="rgb(255,177,165)"/><path d=" M 304.215 95.326 L 255.767 95.326 C 251.061 95.326 247.247 91.511 247.247 86.805 L 247.247 41.763 C 247.247 38.196 250.139 35.304 253.706 35.304 L 304.215 35.304 C 307.782 35.304 310.674 38.196 310.674 41.763 L 310.674 88.866 C 310.674 92.434 307.782 95.326 304.215 95.326 Z " fill="rgb(86,223,237)"/><path d=" M 292.279 73.107 C 292.021 73.365 291.763 73.623 291.505 73.881 C 291.053 74.268 290.667 74.719 290.215 75.17 C 289.57 75.815 288.861 76.138 287.893 76.138 L 287.571 76.138 C 285.636 76.009 283.83 75.235 282.54 74.59 C 278.864 72.784 275.639 70.269 272.931 67.045 C 270.738 64.4 269.255 61.885 268.222 59.241 C 267.578 57.693 267.32 56.467 267.449 55.242 C 267.513 54.533 267.771 53.888 268.352 53.372 L 270.545 51.179 C 270.738 50.985 271.06 50.728 271.447 50.728 C 271.834 50.728 272.092 50.921 272.35 51.179 C 272.737 51.566 273.124 51.953 273.511 52.34 C 273.705 52.533 273.898 52.791 274.156 52.984 L 275.962 54.791 C 276.155 54.984 276.413 55.371 276.413 55.693 C 276.413 56.081 276.155 56.403 275.962 56.596 C 275.768 56.79 275.575 56.983 275.382 57.177 C 274.801 57.757 274.285 58.273 273.769 58.789 L 273.705 58.854 C 273.06 59.499 273.189 60.079 273.318 60.466 L 273.318 60.53 C 273.769 61.691 274.479 62.723 275.446 64.013 C 277.252 66.271 279.187 68.012 281.315 69.366 C 281.573 69.56 281.895 69.689 282.154 69.817 C 282.411 69.947 282.605 70.011 282.799 70.14 L 282.863 70.205 C 283.508 70.527 284.153 70.398 284.669 69.882 L 286.926 67.625 C 287.119 67.431 287.442 67.173 287.829 67.173 C 288.152 67.173 288.474 67.431 288.667 67.625 L 292.279 71.236 C 292.86 71.817 292.86 72.462 292.279 73.107 Z  M 293.762 69.753 L 290.151 66.142 C 289.506 65.432 288.667 65.045 287.829 65.045 C 286.99 65.045 286.152 65.432 285.507 66.077 L 283.443 68.141 L 283.056 67.947 C 282.799 67.818 282.605 67.754 282.411 67.625 C 280.476 66.399 278.735 64.787 277.058 62.723 C 276.284 61.756 275.704 60.853 275.382 60.079 C 275.898 59.628 276.349 59.111 276.8 58.66 C 276.994 58.467 277.187 58.273 277.381 58.08 C 278.09 57.37 278.477 56.532 278.477 55.693 C 278.477 54.855 278.09 54.017 277.381 53.307 L 275.575 51.502 C 275.382 51.308 275.188 51.114 274.994 50.857 C 274.608 50.469 274.156 50.018 273.769 49.631 C 273.124 48.986 272.286 48.599 271.447 48.599 C 270.609 48.599 269.835 48.921 269.126 49.631 L 266.868 51.888 C 266.03 52.727 265.514 53.823 265.385 55.048 C 265.256 56.983 265.772 58.789 266.223 59.95 C 267.255 62.917 268.867 65.561 271.254 68.399 C 274.156 71.817 277.574 74.526 281.573 76.461 C 283.056 77.17 285.12 78.008 287.378 78.202 L 287.829 78.202 C 289.377 78.202 290.667 77.622 291.698 76.525 L 291.763 76.461 C 292.086 76.074 292.472 75.687 292.924 75.3 C 293.182 75.042 293.505 74.719 293.762 74.461 C 295.117 73.043 295.117 71.107 293.762 69.753 Z " fill="rgb(255,255,255)"/></g><clipPath id="_clipPath_TOZvvx5KXYFnBfkdXxbaNkkk0EyGwBr9"><path d=" M 171.975 434.1 L 631.249 434.1 L 631.249 101.416 L 171.975 101.416 L 171.975 434.1 Z " fill="rgb(255,255,255)"/></clipPath><g clip-path="url(#_clipPath_TOZvvx5KXYFnBfkdXxbaNkkk0EyGwBr9)"><path d=" M 514.963 322.582 L 478.461 317.722 L 478.746 321.347 L 447.537 325.502 C 447.537 325.502 427.421 375.972 445.15 486.967 L 470.537 486.967 L 479.674 374.418 L 482.919 374.418 L 491.769 486.967 L 517.155 486.967 C 534.885 375.972 514.963 322.582 514.963 322.582 Z " fill="rgb(142,113,108)"/><line x1="468.067" y1="374.418" x2="494.553" y2="374.418" vector-effect="non-scaling-stroke" stroke-width="1.233" stroke="rgb(40,40,40)" stroke-linejoin="miter" stroke-linecap="square" stroke-miterlimit="3"/><path d=" M 536.279 269.341 C 533.156 264.357 515.614 264.532 514.688 264.424 C 509.946 263.868 517.729 301.605 527.594 334.591 C 529.486 340.915 536.444 344.209 542.521 341.632 C 542.587 341.605 542.652 341.576 542.718 341.549 C 547.526 339.512 550.261 334.408 549.294 329.278 C 544.602 304.387 539.89 275.105 536.279 269.341 Z " fill="rgb(255,177,165)"/><path d=" M 540.46 282.986 L 518.064 291.676 L 515.964 281.05 L 539.155 275.265 L 540.46 282.986 Z " fill="rgb(243,151,142)"/><path d=" M 544.69 304.245 C 544.69 304.245 534.08 318.494 534.586 317.839 C 535.091 317.183 542.906 294.811 542.906 294.811 L 544.69 304.245 Z " fill="rgb(243,151,142)"/><path d=" M 559.86 285.093 L 529.448 324.496 C 525.455 329.669 526.73 337.15 532.212 340.708 C 537.684 344.26 545.023 342.393 548.131 336.657 L 573.446 289.952 L 559.86 285.093 Z " fill="rgb(255,177,165)"/><path d=" M 567.731 295.211 C 561.138 293.081 557.52 286.011 559.65 279.417 C 561.78 272.824 568.851 269.207 575.444 271.336 C 582.037 273.466 585.655 280.537 583.525 287.13 C 581.395 293.724 574.324 297.341 567.731 295.211 Z " fill="rgb(255,177,165)"/><path d=" M 580.735 275.732 C 580.735 275.732 584.168 272.168 578.077 269.67 C 571.987 267.171 564.457 267.745 559.65 279.417 L 580.735 275.732 Z " fill="rgb(255,177,165)"/><path d=" M 587.044 250.831 L 599.778 256.352 C 600.486 256.659 600.744 257.499 600.354 258.227 L 583.603 289.519 C 583.212 290.247 582.321 290.59 581.613 290.282 L 568.879 284.762 C 568.17 284.454 567.913 283.614 568.303 282.886 L 585.055 251.595 C 585.445 250.866 586.336 250.524 587.044 250.831 Z " fill="rgb(55,47,95)"/><path d=" M 585.828 250.277 L 598.561 255.798 C 599.27 256.105 599.528 256.945 599.138 257.673 L 582.386 288.964 C 581.996 289.693 581.105 290.035 580.396 289.728 L 567.663 284.207 C 566.954 283.9 566.696 283.06 567.087 282.331 L 583.839 251.041 C 584.228 250.312 585.119 249.97 585.828 250.277 Z " fill="rgb(38,27,67)"/><path d=" M 584.392 253.461 L 595.58 258.312 L 581.928 283.814 L 570.74 278.963 L 584.392 253.461 Z " fill="rgb(230,230,230)"/><path d=" M 595.58 258.312 L 570.739 278.963 L 584.392 253.461 L 595.58 258.312 Z " fill="rgb(255,255,255)"/><path d=" M 574.422 268.631 C 574.422 268.631 577.257 269.184 579.816 270.634 C 580.943 271.273 581.521 272.573 581.208 273.831 C 580.923 274.978 579.962 275.83 578.79 275.979 L 572.17 276.814 C 572.17 276.814 568.716 282.767 564.203 283.435 L 568.343 272.983 L 574.422 268.631 Z " fill="rgb(255,177,165)"/><path d=" M 489.877 219.721 C 489.147 219.717 536.823 226.318 544.69 280.676 L 519.95 284.466 L 514.963 325.502 L 445.946 325.502 L 432.244 249.683 C 432.244 249.683 447.535 227.769 475.926 219.721 L 489.877 219.721 Z " fill="rgb(86,223,237)"/><line x1="519.95" y1="284.466" x2="522.097" y2="260.733" vector-effect="non-scaling-stroke" stroke-width="1.233" stroke="rgb(40,40,40)" stroke-linejoin="miter" stroke-linecap="square" stroke-miterlimit="3"/><path d=" M 494.408 220.498 L 494.408 201.617 L 472.282 201.617 L 472.282 220.72 C 471.15 221.058 469.264 221.74 466.338 223.13 L 483.595 233.41 L 501.237 223.13 C 501.237 223.13 498.436 221.501 494.408 220.498 Z " fill="rgb(255,177,165)"/><path d=" M 472.077 203.923 C 472.077 203.923 476.051 214.474 486.658 213.564 C 496.408 212.727 494.856 198.104 494.856 198.104 L 472.077 203.923 Z " fill="rgb(40,40,40)"/><path d=" M 462.428 189.891 C 458.959 193.037 451.204 181.105 454.556 177.755 C 457.907 174.406 460.463 179.661 460.463 179.661 L 461.959 183.223 L 463.087 188.046 L 463.356 189.309 L 462.428 189.891 Z " fill="rgb(243,151,142)"/><path d=" M 456.175 181.982 C 456.175 181.982 458.8 180.801 461.132 184.607" fill="none" vector-effect="non-scaling-stroke" stroke-width="0.993" stroke="rgb(40,40,40)" stroke-linejoin="miter" stroke-linecap="square" stroke-miterlimit="3"/><path d=" M 503.44 189.529 C 506.629 192.956 515.366 181.723 512.31 178.102 C 509.254 174.481 506.263 179.502 506.263 179.502 L 504.471 182.924 L 502.938 187.635 L 502.564 188.871 L 503.44 189.529 Z " fill="rgb(243,151,142)"/><path d=" M 510.34 182.177 C 510.34 182.177 507.824 180.778 505.178 184.373" fill="none" vector-effect="non-scaling-stroke" stroke-width="0.993" stroke="rgb(40,40,40)" stroke-linejoin="miter" stroke-linecap="square" stroke-miterlimit="3"/><path d=" M 456.345 166.373 C 456.345 182.168 468.387 189.657 483.241 189.657 C 498.096 189.657 510.137 182.168 510.137 166.373 C 510.137 150.579 498.096 139.835 483.241 139.835 C 468.387 139.835 456.345 150.579 456.345 166.373 Z " fill="rgb(40,40,40)"/><path d=" M 460 167.472 C 460 177.168 461.37 185.535 462.737 191.473 C 464.076 197.287 467.844 201.35 473.168 204.621 L 474.138 205.217 C 479.771 208.677 487.05 208.758 492.77 205.423 C 498.538 202.06 502.577 197.626 503.82 191.387 C 506.081 180.04 506.328 167.472 506.328 167.472 C 506.328 167.472 508.479 142.995 483.495 143.471 C 458.51 143.947 460 167.472 460 167.472 Z " fill="rgb(255,177,165)"/><path d=" M 481.648 181.441 L 481.648 184.828 C 481.648 185.028 481.686 185.221 481.757 185.397 C 482.035 186.089 482.834 186.421 483.556 186.229 L 485.109 185.817" fill="none" vector-effect="non-scaling-stroke" stroke-width="1.232" stroke="rgb(40,40,40)" stroke-linejoin="miter" stroke-linecap="square" stroke-miterlimit="3"/><path d=" M 477.676 168.307 L 465.259 171.217 C 465.259 171.217 465.823 168.057 470.903 166.909 C 475.983 165.76 477.676 168.307 477.676 168.307 Z " fill="rgb(40,40,40)"/><path d=" M 488.696 168.307 L 500.685 171.217 C 500.685 171.217 500.14 168.057 495.235 166.909 C 490.331 165.76 488.696 168.307 488.696 168.307 Z " fill="rgb(40,40,40)"/><path d=" M 475.052 177.428 C 475.052 178.581 474.115 179.516 472.958 179.516 C 471.802 179.516 470.865 178.581 470.865 177.428 C 470.865 176.275 471.802 175.34 472.958 175.34 C 474.115 175.34 475.052 176.275 475.052 177.428 Z " fill="rgb(40,40,40)"/><path d=" M 494.904 177.428 C 494.904 178.581 493.967 179.516 492.81 179.516 C 491.653 179.516 490.716 178.581 490.716 177.428 C 490.716 176.275 491.653 175.34 492.81 175.34 C 493.967 175.34 494.904 176.275 494.904 177.428 Z " fill="rgb(40,40,40)"/><line x1="475.052" y1="190.171" x2="491.2" y2="190.171"/><path d=" M 480.981 178.239 C 480.981 183.157 476.995 187.144 472.077 187.144 C 467.159 187.144 463.171 183.157 463.171 178.239 C 463.171 173.321 467.159 169.334 472.077 169.334 C 476.995 169.334 480.981 173.321 480.981 178.239 Z " fill="none" vector-effect="non-scaling-stroke" stroke-width="1.342" stroke="rgb(201,139,210)" stroke-linejoin="miter" stroke-linecap="square" stroke-miterlimit="3"/><path d=" M 502.857 178.239 C 502.857 183.157 498.871 187.144 493.953 187.144 C 489.035 187.144 485.047 183.157 485.047 178.239 C 485.047 173.321 489.035 169.334 493.953 169.334 C 498.871 169.334 502.857 173.321 502.857 178.239 Z " fill="none" vector-effect="non-scaling-stroke" stroke-width="1.342" stroke="rgb(201,139,210)" stroke-linejoin="miter" stroke-linecap="square" stroke-miterlimit="3"/><path d=" M 480.981 178.239 C 480.981 178.239 483.09 176.27 485.047 178.239" fill="none" vector-effect="non-scaling-stroke" stroke-width="1.342" stroke="rgb(201,139,210)" stroke-linejoin="miter" stroke-linecap="square" stroke-miterlimit="3"/><line x1="463.172" y1="178.239" x2="460.367" y2="178.168" vector-effect="non-scaling-stroke" stroke-width="1.342" stroke="rgb(201,139,210)" stroke-linejoin="miter" stroke-linecap="square" stroke-miterlimit="3"/><line x1="502.857" y1="178.239" x2="505.679" y2="178.168" vector-effect="non-scaling-stroke" stroke-width="1.342" stroke="rgb(201,139,210)" stroke-linejoin="miter" stroke-linecap="square" stroke-miterlimit="3"/><path d=" M 506.007 175.587 C 506.007 175.587 496.018 162.083 498.322 148.402 C 498.322 148.402 505.736 152.133 507.667 161.763 C 509.599 171.394 506.007 175.587 506.007 175.587 Z " fill="rgb(40,40,40)"/><path d=" M 459.983 176.502 C 459.983 176.502 471.587 161.164 469.283 147.483 C 469.283 147.483 461.234 152.133 459.303 161.763 C 457.373 171.394 459.983 176.502 459.983 176.502 Z " fill="rgb(40,40,40)"/><path d=" M 505.169 153.79 C 505.169 153.79 492.343 167.832 457.249 165.428 C 457.249 165.428 462.623 144.823 479.63 142.628 C 479.63 142.628 499.268 140.283 505.169 153.79 Z " fill="rgb(40,40,40)"/><path d=" M 521.024 137.375 C 521.024 146.629 513.522 154.131 504.268 154.131 C 495.014 154.131 487.512 146.629 487.512 137.375 C 487.512 128.121 495.014 120.62 504.268 120.62 C 513.522 120.62 521.024 128.121 521.024 137.375 Z " fill="rgb(40,40,40)"/><path d=" M 299.725 322.544 L 268.517 318.388 L 268.802 314.764 L 232.3 319.624 C 232.3 319.624 212.378 373.013 230.108 484.009 L 255.495 484.009 L 264.344 371.46 L 267.589 371.46 L 276.725 484.009 L 302.112 484.009 C 319.842 373.013 299.725 322.544 299.725 322.544 Z " fill="rgb(40,40,40)"/><path d=" M 297.235 170.7 C 293.011 165.731 289.629 159.934 286.755 151.799 C 283.669 143.067 273.566 146.616 273.566 146.616 C 273.566 146.616 265.147 135.785 252.478 139.558 C 239.809 143.33 235.407 152.346 235.149 163.064 C 234.89 173.782 226.46 175.458 219.968 187.858 C 208.507 209.747 227.803 228.185 262.927 223.07 L 262.974 222.729 C 266.433 223.78 270.672 224.238 275.847 223.931 C 318.043 221.426 313.971 190.389 297.235 170.7 Z " fill="rgb(40,40,40)"/><path d=" M 283.421 186.933 C 286.889 190.079 294.644 178.147 291.293 174.797 C 287.942 171.448 285.386 176.703 285.386 176.703 L 283.89 180.265 L 282.761 185.088 L 282.492 186.351 L 283.421 186.933 Z " fill="rgb(243,151,142)"/><path d=" M 289.673 179.023 C 289.673 179.023 287.048 177.842 284.715 181.648" fill="none" vector-effect="non-scaling-stroke" stroke-width="0.993" stroke="rgb(40,40,40)" stroke-linejoin="miter" stroke-linecap="square" stroke-miterlimit="3"/><path d=" M 242.408 186.571 C 239.218 189.999 230.482 178.766 233.538 175.145 C 236.594 171.524 239.585 176.544 239.585 176.544 L 241.377 179.966 L 242.909 184.677 L 243.283 185.913 L 242.408 186.571 Z " fill="rgb(243,151,142)"/><path d=" M 235.508 179.219 C 235.508 179.219 238.024 177.82 240.67 181.415" fill="none" vector-effect="non-scaling-stroke" stroke-width="0.993" stroke="rgb(40,40,40)" stroke-linejoin="miter" stroke-linecap="square" stroke-miterlimit="3"/><path d=" M 289.503 163.415 C 289.503 179.209 277.461 186.699 262.607 186.699 C 247.753 186.699 235.711 179.209 235.711 163.415 C 235.711 147.621 247.753 136.876 262.607 136.876 C 277.461 136.876 289.503 147.621 289.503 163.415 Z " fill="rgb(40,40,40)"/><path d=" M 273.566 227.31 L 251.44 227.31 L 251.44 198.659 L 273.566 198.659 L 273.566 227.31 Z " fill="rgb(255,177,165)"/><path d=" M 248.211 196.872 C 248.211 196.872 254.37 209.164 261.947 211.083 C 263.971 211.596 266.133 211.42 268.085 210.728 C 270.937 209.717 274.553 205.465 275.168 200.761 L 275.453 198.073 C 275.453 198.073 261.97 205.414 248.211 196.872 Z " fill="rgb(40,40,40)"/><path d=" M 285.848 164.514 C 285.848 174.21 284.478 182.577 283.111 188.515 C 281.772 194.329 278.004 198.392 272.68 201.662 L 271.71 202.258 C 266.077 205.719 258.799 205.799 253.078 202.465 C 247.31 199.101 243.271 194.667 242.028 188.429 C 239.767 177.081 239.52 164.514 239.52 164.514 C 239.52 164.514 237.369 140.037 262.354 140.513 C 287.338 140.988 285.848 164.514 285.848 164.514 Z " fill="rgb(255,177,165)"/><path d=" M 260.938 179.808 L 260.938 181.82 C 260.938 182.02 260.977 182.212 261.047 182.388 C 261.325 183.078 262.124 183.408 262.847 183.217 L 264.4 182.807" fill="none" vector-effect="non-scaling-stroke" stroke-width="1.23" stroke="rgb(40,40,40)" stroke-linejoin="miter" stroke-linecap="square" stroke-miterlimit="3"/><path d=" M 266.144 166.54 L 279.436 169.686 C 279.436 169.686 278.832 166.27 273.394 165.028 C 267.956 163.787 266.144 166.54 266.144 166.54 Z " fill="rgb(40,40,40)"/><path d=" M 259.165 166.54 L 245.702 169.686 C 245.702 169.686 246.313 166.27 251.821 165.028 C 257.329 163.787 259.165 166.54 259.165 166.54 Z " fill="rgb(40,40,40)"/><path d=" M 254.342 174.791 C 254.342 175.941 253.405 176.873 252.248 176.873 C 251.091 176.873 250.154 175.941 250.154 174.791 C 250.154 173.641 251.091 172.709 252.248 172.709 C 253.405 172.709 254.342 173.641 254.342 174.791 Z " fill="rgb(40,40,40)"/><path d=" M 274.194 174.791 C 274.194 175.941 273.257 176.873 272.1 176.873 C 270.944 176.873 270.006 175.941 270.006 174.791 C 270.006 173.641 270.944 172.709 272.1 172.709 C 273.257 172.709 274.194 173.641 274.194 174.791 Z " fill="rgb(40,40,40)"/><path d=" M 252.959 186.699 L 271.338 186.699 C 271.338 186.699 270.041 191.749 261.707 191.749 C 255.36 191.749 252.959 186.699 252.959 186.699 Z " fill="rgb(255,255,255)"/><path d=" M 239.841 172.629 C 239.841 172.629 249.83 159.124 247.526 145.443 C 247.526 145.443 240.112 149.174 238.181 158.805 C 236.25 168.435 239.841 172.629 239.841 172.629 Z " fill="rgb(40,40,40)"/><path d=" M 285.865 172.179 C 285.865 172.179 274.261 158.206 276.565 144.525 C 276.565 144.525 284.614 149.174 286.544 158.804 C 288.475 168.435 285.865 172.179 285.865 172.179 Z " fill="rgb(40,40,40)"/><path d=" M 240.679 150.832 C 240.679 150.832 252.141 166.238 287.234 163.835 C 287.234 163.835 283.225 141.865 266.218 139.67 C 266.218 139.67 246.581 137.326 240.679 150.832 Z " fill="rgb(40,40,40)"/><path d=" M 208.689 390.313 C 208.179 391.116 237.897 261.008 229.074 262.975 C 228.269 263.154 212.816 264.589 210.52 269.259 C 203.862 282.795 199.087 389.326 199.087 389.326 L 208.689 390.313 Z " fill="rgb(255,177,165)"/><path d=" M 199.087 389.325 C 199.087 389.325 194.297 411.551 212.405 413.98 C 213.598 414.14 214.751 413.435 215.144 412.298 L 215.196 412.147 C 215.629 410.891 215 409.545 213.787 409.003 C 210.835 407.682 206.255 404.347 208.527 396.773 C 208.527 396.773 211.145 396.452 212.589 401.335 C 212.961 402.591 214.371 403.221 215.541 402.633 C 216.339 402.23 216.789 401.371 216.676 400.484 C 216.242 397.064 214.522 388.833 207.921 386.624 L 199.087 389.325 Z " fill="rgb(255,177,165)"/><path d=" M 205.181 300.52 C 205.181 300.52 222.304 324.634 222.394 324.167 C 222.484 323.703 228.382 290.312 228.382 290.312 L 207.604 281.313 L 205.181 300.52 Z " fill="rgb(243,151,142)"/><path d=" M 252.757 222.593 C 253.487 222.589 210.439 223.36 202.571 277.717 L 227.311 281.508 L 232.299 322.544 L 301.316 322.544 L 315.017 246.724 C 315.017 246.724 305.277 230.298 276.885 222.25 L 252.757 222.593 Z " fill="rgb(0,133,123)"/><path d=" M 231.716 229.164 C 231.716 229.164 237.799 237.24 262.726 237.24 C 287.422 237.24 293.737 228.741 293.737 228.741 C 293.737 228.741 279.179 220.607 262.286 217.976 C 262.286 217.976 247.201 220.663 231.716 229.164 Z " fill="rgb(255,177,165)"/><path d=" M 316.414 401.367 L 316.474 509.772 L 370.102 509.772 L 374.224 401.367 L 316.414 401.367 Z " fill="rgb(0,86,131)"/><path d=" M 432.856 401.367 L 432.797 509.772 L 379.168 509.772 L 375.047 401.367 L 432.856 401.367 Z " fill="rgb(0,86,131)"/><path d=" M 403.566 439.028 L 348.116 439.028 L 348.116 401.367 L 403.566 401.367 L 403.566 439.028 Z " fill="rgb(0,86,131)"/><path d=" M 466.735 306.763 C 470.06 343.497 466.552 370.262 467.522 437.855 L 435.514 439.196 L 430.745 312.673 L 466.735 306.763 Z " fill="rgb(255,177,165)"/><path d=" M 434.692 335.428 C 434.692 335.428 454.514 333.614 468.066 324.674 L 467.709 316.807 L 434.681 321.306 L 434.692 335.428 Z " fill="rgb(243,151,142)"/><path d=" M 402.894 222.188 C 402.894 222.188 465.854 238.021 477.261 317.936 C 477.261 317.936 446.447 331.295 415.567 325.549 L 422.514 298.821 L 402.894 222.188 Z " fill="rgb(201,139,210)"/><path d=" M 214.834 255.417 L 261.712 310.778 L 247.366 351.177 C 247.366 351.177 211.736 301.64 195.727 263.351 L 214.834 255.417 Z " fill="rgb(255,177,165)"/><path d=" M 216.375 257.415 C 216.375 257.415 199.914 266.715 195.727 263.351 C 188.41 257.472 182.363 235.952 182.363 235.952 C 182.363 235.952 213.146 224.347 212.856 224.8 C 212.567 225.254 216.375 257.415 216.375 257.415 Z " fill="rgb(255,177,165)"/><path d=" M 216.375 257.415 C 216.083 255.758 222.479 237.88 224.671 231.176 C 225.2 229.559 224.085 227.786 222.33 227.45 C 221.187 227.231 219.378 227.372 218.522 229.011 L 210.801 242.207 L 216.375 257.415 Z " fill="rgb(255,177,165)"/><path d=" M 215.81 238.088 L 210.509 211.715 C 210.195 209.96 208.431 208.751 206.672 209.083 C 205.149 209.371 204.145 210.728 204.325 212.254 L 206.635 231.892 L 215.81 238.088 Z " fill="rgb(255,177,165)"/><path d=" M 205.269 228.361 L 198.07 209.528 C 197.475 207.879 195.619 206.965 193.98 207.514 C 192.56 207.99 191.762 209.422 192.099 210.892 L 197.44 232.654 L 205.269 228.361 Z " fill="rgb(255,177,165)"/><path d=" M 197.532 233.914 L 188.424 215.409 C 187.588 213.692 185.509 212.894 183.801 213.637 C 182.198 214.334 181.488 216.151 182.174 217.803 L 189.435 235.273 L 197.532 233.914 Z " fill="rgb(255,177,165)"/><path d=" M 182.363 235.952 L 175.216 224.616 C 174.624 223.282 175.171 221.786 176.466 221.195 C 177.705 220.629 179.235 221.075 180.037 222.234 L 189.435 235.273 L 182.363 235.952 Z " fill="rgb(255,177,165)"/><path d=" M 214.37 236.107 C 214.37 236.107 203.637 234.981 202.535 249.284" fill="none" vector-effect="non-scaling-stroke" stroke-width="1.532" stroke="rgb(40,40,40)" stroke-linejoin="miter" stroke-linecap="square" stroke-miterlimit="3"/><path d=" M 237.859 332.281 C 237.859 332.281 246.676 362.795 264.246 358.738 C 281.815 354.681 309.198 317.156 309.198 317.156 L 303.069 253.082 L 253.756 313.775 L 237.859 332.281 Z " fill="rgb(255,177,165)"/><path d=" M 269.051 294.923 C 269.051 294.923 285.7 320.035 299.903 328.891 L 309.198 317.156 L 273.337 289.415 L 269.051 294.923 Z " fill="rgb(243,151,142)"/><path d=" M 341.893 220.803 C 341.893 220.803 293.013 231.821 266.965 288.629 C 266.965 288.629 282.703 312.343 307.934 322.883 L 324.826 302.189 L 341.893 220.803 Z " fill="rgb(201,139,210)"/><path d=" M 341.893 220.627 C 322.799 230.421 310.795 243.41 310.795 243.41 L 314.562 409.469 L 434.89 409.469 L 434.5 244.266 C 434.5 244.266 419.332 229.424 402.893 222.188 C 388.932 216.042 355.467 213.665 341.893 220.627 Z " fill="rgb(201,139,210)"/><path d=" M 398.83 301.544 L 398.83 301.544 C 389.587 301.544 382.094 294.051 382.094 284.808 L 382.094 268.071 L 415.566 268.071 L 415.566 284.808 C 415.566 294.051 408.073 301.544 398.83 301.544 Z " fill="none" vector-effect="non-scaling-stroke" stroke-width="1.397" stroke="rgb(40,40,40)" stroke-linejoin="miter" stroke-linecap="square" stroke-miterlimit="3"/><line x1="434.692" y1="326.166" x2="436.254" y2="271.843" vector-effect="non-scaling-stroke" stroke-width="1.397" stroke="rgb(40,40,40)" stroke-linejoin="miter" stroke-linecap="square" stroke-miterlimit="3"/><line x1="312.644" y1="317.112" x2="310.044" y2="270.023" vector-effect="non-scaling-stroke" stroke-width="1.397" stroke="rgb(40,40,40)" stroke-linejoin="miter" stroke-linecap="square" stroke-miterlimit="3"/><path d=" M 343.303 159.974 L 338.287 135.159 C 338.005 133.138 337.221 130.018 338.181 127.088 C 339.77 122.239 345.609 112.927 355.589 117.19 L 357.746 127.015 C 357.746 127.015 347.382 129.107 343.225 142.665 L 343.303 159.974 Z " fill="rgb(40,40,40)"/><path d=" M 354.854 122.313 C 354.672 125.574 351.794 139.84 341.677 145.037 C 341.677 145.037 332.814 126.032 354.854 122.313 Z " fill="rgb(40,40,40)"/><path d=" M 390.347 216.058 L 390.347 216.058 L 390.347 173.922 L 351.503 173.922 L 351.503 216.058 L 339.94 221.329 C 339.94 221.329 342.652 238.793 371.332 239.181 C 400.013 239.568 402.894 222.189 402.894 222.189 L 390.347 216.058 Z " fill="rgb(255,177,165)"/><path d=" M 355.588 117.19 C 355.588 117.19 362.717 98.384 384.7 108.381 C 398.005 114.433 401.732 122.546 403.317 128.295 C 403.844 130.205 404.054 133.213 403.911 135 L 398.593 159.974 L 377.834 125.421 L 357.745 127.015 L 355.588 117.19 Z " fill="rgb(40,40,40)"/><path d=" M 398.594 159.974 C 398.594 159.974 401.213 155.808 406.615 157.857 C 412.016 159.906 409.573 173.023 401.47 174.695 C 401.47 174.695 398.566 175.328 396.288 173.34 C 396.288 173.34 398.281 163.651 398.594 159.974 Z " fill="rgb(243,151,142)"/><path d=" M 405.543 162.485 C 405.543 162.485 401.019 160.975 397.807 167.638" fill="none" vector-effect="non-scaling-stroke" stroke-width="1.397" stroke="rgb(40,40,40)" stroke-linejoin="miter" stroke-linecap="square" stroke-miterlimit="3"/><path d=" M 343.303 159.974 C 343.303 159.974 340.684 155.808 335.283 157.857 C 329.882 159.906 332.325 173.023 340.427 174.695 C 340.427 174.695 343.331 175.328 345.609 173.34 C 345.609 173.34 343.616 163.651 343.303 159.974 Z " fill="rgb(243,151,142)"/><path d=" M 336.354 162.485 C 336.354 162.485 340.878 160.975 344.09 167.638" fill="none" vector-effect="non-scaling-stroke" stroke-width="1.397" stroke="rgb(40,40,40)" stroke-linejoin="miter" stroke-linecap="square" stroke-miterlimit="3"/><path d=" M 399.135 147.526 C 399.138 155.434 398.362 171.978 393.5 181.797 C 388.936 191.017 381.386 195.979 371.489 196.275 C 361.591 196.57 354.218 192.755 348.309 180.79 C 342.4 168.824 342.682 147.673 342.682 147.673 C 342.682 147.673 342.682 119.423 370.602 119.423 C 400.008 119.423 399.135 147.526 399.135 147.526 Z " fill="rgb(255,177,165)"/><path d=" M 351.794 186.688 C 351.794 186.688 355.047 203.194 369.412 205.09 C 385.943 207.272 390.347 187.107 390.347 187.107 C 390.347 187.107 383.041 196.261 371.488 196.275 C 358.604 196.291 351.794 186.688 351.794 186.688 Z " fill="rgb(40,40,40)"/><path d=" M 368.917 159.254 L 368.917 165.792 C 368.917 166.072 368.971 166.341 369.07 166.588 C 369.457 167.557 370.572 168.021 371.58 167.753 L 373.747 167.176" fill="none" vector-effect="non-scaling-stroke" stroke-width="1.397" stroke="rgb(40,40,40)" stroke-linejoin="miter" stroke-linecap="square" stroke-miterlimit="3"/><path d=" M 360.671 156.132 C 360.671 157.536 359.533 158.674 358.129 158.674 C 356.726 158.674 355.588 157.536 355.588 156.132 C 355.588 154.729 356.726 153.59 358.129 153.59 C 359.533 153.59 360.671 154.729 360.671 156.132 Z " fill="rgb(40,40,40)"/><path d=" M 384.502 156.132 C 384.502 157.536 383.363 158.674 381.96 158.674 C 380.557 158.674 379.418 157.536 379.418 156.132 C 379.418 154.729 380.557 153.59 381.96 153.59 C 383.363 153.59 384.502 154.729 384.502 156.132 Z " fill="rgb(40,40,40)"/><path d=" M 375.454 143.487 L 392.543 147.902 C 392.543 147.902 391.766 143.108 384.775 141.366 C 377.784 139.625 375.454 143.487 375.454 143.487 Z " fill="rgb(40,40,40)"/><path d=" M 364.835 143.487 L 347.746 147.902 C 347.746 147.902 348.523 143.108 355.514 141.366 C 362.505 139.625 364.835 143.487 364.835 143.487 Z " fill="rgb(40,40,40)"/><path d=" M 361.437 172.379 C 361.437 172.379 363.958 174.311 370.587 174.311 C 376.616 174.311 380.381 172.379 380.381 172.379" fill="none" vector-effect="non-scaling-stroke" stroke-width="1.397" stroke="rgb(40,40,40)" stroke-linejoin="miter" stroke-linecap="square" stroke-miterlimit="3"/><path d=" M 368.246 156.875 C 368.246 162.84 363.411 167.675 357.446 167.675 C 351.481 167.675 346.645 162.84 346.645 156.875 C 346.645 150.91 351.481 146.075 357.446 146.075 C 363.411 146.075 368.246 150.91 368.246 156.875 Z " fill="none" vector-effect="non-scaling-stroke" stroke-width="1.951" stroke="rgb(255,255,255)" stroke-linejoin="miter" stroke-linecap="square" stroke-miterlimit="3"/><path d=" M 394.778 156.875 C 394.778 162.84 389.943 167.675 383.978 167.675 C 378.013 167.675 373.177 162.84 373.177 156.875 C 373.177 150.91 378.013 146.075 383.978 146.075 C 389.943 146.075 394.778 150.91 394.778 156.875 Z " fill="none" vector-effect="non-scaling-stroke" stroke-width="1.951" stroke="rgb(255,255,255)" stroke-linejoin="miter" stroke-linecap="square" stroke-miterlimit="3"/><path d=" M 368.246 156.875 C 368.246 156.875 370.804 154.488 373.178 156.875" fill="none" vector-effect="non-scaling-stroke" stroke-width="1.951" stroke="rgb(255,255,255)" stroke-linejoin="miter" stroke-linecap="square" stroke-miterlimit="3"/><line x1="346.646" y1="156.875" x2="343.025" y2="156.783" vector-effect="non-scaling-stroke" stroke-width="1.951" stroke="rgb(255,255,255)" stroke-linejoin="miter" stroke-linecap="square" stroke-miterlimit="3"/><line x1="394.778" y1="156.875" x2="398.821" y2="156.81" vector-effect="non-scaling-stroke" stroke-width="1.951" stroke="rgb(255,255,255)" stroke-linejoin="miter" stroke-linecap="square" stroke-miterlimit="3"/><path d=" M 351.794 122.957 C 351.794 122.957 356.981 137.693 380.385 137.24 C 396.288 136.933 400.088 148.442 400.088 148.442 C 400.088 148.442 397.32 122.714 396.593 122.957 C 395.865 123.2 372.394 116.694 372.394 116.694 L 351.794 122.957 Z " fill="rgb(40,40,40)"/></g></g></svg>